<?xml version="1.0" encoding="UTF-8" standalone="no"?>
<!-- Created with Inkscape (http://www.inkscape.org/) -->

<svg
   xmlns:dc="http://purl.org/dc/elements/1.1/"
   xmlns:cc="http://creativecommons.org/ns#"
   xmlns:rdf="http://www.w3.org/1999/02/22-rdf-syntax-ns#"
   xmlns:svg="http://www.w3.org/2000/svg"
   xmlns="http://www.w3.org/2000/svg"
   xmlns:xlink="http://www.w3.org/1999/xlink"
   xmlns:sodipodi="http://sodipodi.sourceforge.net/DTD/sodipodi-0.dtd"
   xmlns:inkscape="http://www.inkscape.org/namespaces/inkscape"
   width="50"
   height="50"
   viewBox="0 0 13.229166 13.229167"
   version="1.1"
   id="svg8"
   inkscape:version="0.92.3 (2405546, 2018-03-11)"
   sodipodi:docname="grid_danger_right.svg"
   inkscape:export-filename="/home/markus/Programming/Hit Game/grid_danger_right.png"
   inkscape:export-xdpi="96.300003"
   inkscape:export-ydpi="96.300003">
  <defs
     id="defs2">
    <linearGradient
       inkscape:collect="always"
       id="linearGradient827">
      <stop
         style="stop-color:#756060;stop-opacity:1"
         offset="0"
         id="stop823" />
      <stop
         style="stop-color:#cfa5a5;stop-opacity:1"
         offset="1"
         id="stop825" />
    </linearGradient>
    <radialGradient
       inkscape:collect="always"
       xlink:href="#linearGradient827"
       id="radialGradient1173"
       cx="7.0004549"
       cy="295.93423"
       fx="7.0004549"
       fy="295.93423"
       r="5.7843785"
       gradientTransform="matrix(-1.9177551,3.0925958e-7,3.297174e-8,0.20446164,19.565704,234.83914)"
       gradientUnits="userSpaceOnUse" />
    <radialGradient
       inkscape:collect="always"
       xlink:href="#linearGradient827"
       id="radialGradient850"
       gradientUnits="userSpaceOnUse"
       gradientTransform="matrix(-1.9177551,3.0925958e-7,3.297174e-8,0.20446164,19.565704,231.53181)"
       cx="7.0004549"
       cy="295.93423"
       fx="7.0004549"
       fy="295.93423"
       r="5.7843785" />
    <radialGradient
       inkscape:collect="always"
       xlink:href="#linearGradient827"
       id="radialGradient854"
       gradientUnits="userSpaceOnUse"
       gradientTransform="matrix(-1.9177551,3.0925958e-7,3.297174e-8,0.20446164,19.565704,228.22452)"
       cx="7.0004549"
       cy="295.93423"
       fx="7.0004549"
       fy="295.93423"
       r="5.7843785" />
    <radialGradient
       inkscape:collect="always"
       xlink:href="#linearGradient827"
       id="radialGradient858"
       gradientUnits="userSpaceOnUse"
       gradientTransform="matrix(-1.9177551,3.0925958e-7,3.297174e-8,0.20446164,19.565704,224.91722)"
       cx="7.0004549"
       cy="295.93423"
       fx="7.0004549"
       fy="295.93423"
       r="5.7843785" />
    <linearGradient
       gradientTransform="translate(9.2232452,0.08661833)"
       gradientUnits="userSpaceOnUse"
       y2="290.38541"
       x2="3.9560602"
       y1="290.38541"
       x1="2.3561625"
       id="linearGradient1104"
       xlink:href="#linearGradient827"
       inkscape:collect="always" />
    <linearGradient
       y2="290.38541"
       x2="3.9560602"
       y1="290.38541"
       x1="2.3561625"
       gradientTransform="translate(5.5190787,0.08661833)"
       gradientUnits="userSpaceOnUse"
       id="linearGradient1144"
       xlink:href="#linearGradient827"
       inkscape:collect="always" />
  </defs>
  <sodipodi:namedview
     id="base"
     pagecolor="#ffffff"
     bordercolor="#666666"
     borderopacity="1.0"
     inkscape:pageopacity="0.0"
     inkscape:pageshadow="2"
     inkscape:zoom="6.714146"
     inkscape:cx="-3.161336"
     inkscape:cy="21.125526"
     inkscape:document-units="mm"
     inkscape:current-layer="layer1"
     showgrid="false"
     units="px"
     inkscape:window-width="1853"
     inkscape:window-height="1025"
     inkscape:window-x="67"
     inkscape:window-y="27"
     inkscape:window-maximized="1" />
  <metadata
     id="metadata5">
    <rdf:RDF>
      <cc:Work
         rdf:about="">
        <dc:format>image/svg+xml</dc:format>
        <dc:type
           rdf:resource="http://purl.org/dc/dcmitype/StillImage" />
        <dc:title />
      </cc:Work>
    </rdf:RDF>
  </metadata>
  <g
     inkscape:label="Layer 1"
     inkscape:groupmode="layer"
     id="layer1"
     transform="translate(0,-283.77081)">
    <path
       sodipodi:nodetypes="ccccccscccsscccccc"
       inkscape:connector-curvature="0"
       id="path848"
       d="m -1.429757,292.04474 c 1.06935689,-0.31419 2.4497458,-0.51547 2.4497458,-0.51547 l 1.25594,-0.32022 1.1516257,-0.23869 1.5887093,0.11099 1.826332,-0.23198 c 0,0 1.3647274,0.12121 1.9676701,0.13091 1.2058861,0.0194 2.3082381,0.0788 3.1146691,0.20416 v 0.92604 0.92604 c -0.868114,-0.0627 -1.770496,-0.1156 -2.6994354,-0.15429 -0.9289384,-0.0387 -1.8844353,-0.0632 -2.8587773,-0.0691 -0.4871735,-0.003 -1.0098574,0.0263 -1.5305813,0.0749 -1.0424433,-0.19115 -1.8507342,-0.0874 -1.8507342,-0.0874 l -1.306311,-0.14442 c 0,0 -1.28482694,-0.28141 -3.1088528,-0.61184 v -1e-5 z"
       style="opacity:1;fill:url(#radialGradient850);fill-opacity:1;stroke:#8f8f8f;stroke-width:0;stroke-miterlimit:4;stroke-dasharray:none;stroke-dashoffset:18.89763832;stroke-opacity:1" />
    <path
       style="opacity:1;fill:url(#radialGradient854);fill-opacity:1;stroke:#8f8f8f;stroke-width:0;stroke-miterlimit:4;stroke-dasharray:none;stroke-dashoffset:18.89763832;stroke-opacity:1"
       d="m -1.429757,288.73745 c 1.06935689,-0.31419 2.4497458,-0.51547 2.4497458,-0.51547 l 1.25594,-0.32022 1.1516257,-0.23869 1.5887093,0.11099 1.826332,-0.23198 c 0,0 1.3647274,0.12121 1.9676701,0.13091 1.2058861,0.0194 2.3082381,0.0788 3.1146691,0.20416 v 0.92604 0.92604 c -0.868114,-0.0627 -1.770496,-0.1156 -2.6994354,-0.15429 -0.9289384,-0.0387 -1.8844353,-0.0632 -2.8587773,-0.0691 -0.4871735,-0.003 -1.0098574,0.0263 -1.5305813,0.0749 -1.0424433,-0.19115 -1.8507342,-0.0874 -1.8507342,-0.0874 l -1.306311,-0.14442 c 0,0 -1.28482694,-0.28141 -3.1088528,-0.61184 v -10e-6 z"
       id="path852"
       inkscape:connector-curvature="0"
       sodipodi:nodetypes="ccccccscccsscccccc" />
    <path
       sodipodi:nodetypes="ccccccscccsscccccc"
       inkscape:connector-curvature="0"
       id="path856"
       d="m -1.429757,285.43015 c 1.06935689,-0.31419 2.4497458,-0.51547 2.4497458,-0.51547 l 1.25594,-0.32022 1.1516257,-0.23869 1.5887093,0.11099 1.826332,-0.23198 c 0,0 1.3647274,0.12121 1.9676701,0.13091 1.2058861,0.0194 2.3082381,0.0788 3.1146691,0.20416 v 0.92604 0.92604 c -0.868114,-0.0627 -1.770496,-0.1156 -2.6994354,-0.15429 -0.9289384,-0.0387 -1.8844353,-0.0632 -2.8587773,-0.0691 -0.4871735,-0.003 -1.0098574,0.0263 -1.5305813,0.0749 -1.0424433,-0.19115 -1.8507342,-0.0874 -1.8507342,-0.0874 l -1.306311,-0.14442 c 0,0 -1.28482694,-0.28141 -3.1088528,-0.61184 v -10e-6 z"
       style="opacity:1;fill:url(#radialGradient858);fill-opacity:1;stroke:#8f8f8f;stroke-width:0;stroke-miterlimit:4;stroke-dasharray:none;stroke-dashoffset:18.89763832;stroke-opacity:1" />
    <path
       style="opacity:1;fill:url(#radialGradient1173);fill-opacity:1;stroke:#8f8f8f;stroke-width:0;stroke-miterlimit:4;stroke-dasharray:none;stroke-dashoffset:18.89763832;stroke-opacity:1"
       d="m -1.429757,295.35207 c 1.06935689,-0.31419 2.4497458,-0.51547 2.4497458,-0.51547 l 1.25594,-0.32022 1.1516257,-0.23869 1.5887093,0.11099 1.826332,-0.23198 c 0,0 1.3647274,0.12121 1.9676701,0.13091 1.2058861,0.0194 2.3082381,0.0788 3.1146691,0.20416 v 0.92604 0.92604 c -0.868114,-0.0627 -1.770496,-0.1156 -2.6994354,-0.15429 -0.9289384,-0.0387 -1.8844353,-0.0632 -2.8587773,-0.0691 -0.4871735,-0.003 -1.0098574,0.0263 -1.5305813,0.0749 -1.0424433,-0.19115 -1.8507342,-0.0874 -1.8507342,-0.0874 l -1.306311,-0.14442 c 0,0 -1.28482694,-0.28141 -3.1088528,-0.61184 v -10e-6 z"
       id="rect817-5"
       inkscape:connector-curvature="0"
       sodipodi:nodetypes="ccccccscccsscccccc" />
    <path
       style="opacity:1;fill:url(#linearGradient1104);fill-opacity:1;stroke:none;stroke-width:1.43481171;stroke-miterlimit:4;stroke-dasharray:none;stroke-dashoffset:18.89763832;stroke-opacity:1"
       d="m 11.339911,283.85743 c 0.232231,-0.39381 0.803879,-1.06934 0.973065,-1.78688 0.148921,0.76188 0.901823,1.59888 0.879019,1.78688 -0.05307,0.43751 0.105671,12.913 0,13.22917 -0.352346,1.05423 -0.281201,0.55605 -0.87927,1.61364 -0.259644,-0.74079 -0.976521,-1.36196 -0.972814,-1.61364 0.0037,-0.2518 0.211604,-4.12759 0.22336,-6.35596 0.0059,-1.11419 -0.11707,-2.39081 -0.265398,-3.48707 -0.05647,-0.41739 -0.0097,-3.29843 0.04204,-3.38614 z"
       id="rect817"
       inkscape:connector-curvature="0"
       sodipodi:nodetypes="scsscssss" />
    <path
       sodipodi:nodetypes="scsscssss"
       inkscape:connector-curvature="0"
       id="path1142"
       d="m 7.6357449,283.85743 c 0.232231,-0.39381 0.8038791,-1.06934 0.9730651,-1.78688 0.148921,0.76188 0.901823,1.59888 0.879019,1.78688 -0.05307,0.43751 0.105671,12.913 0,13.22917 -0.352346,1.05423 -0.281201,0.55605 -0.87927,1.61364 -0.259644,-0.74079 -0.9765211,-1.36196 -0.9728141,-1.61364 0.0037,-0.2518 0.211604,-4.12759 0.22336,-6.35596 0.0059,-1.11419 -0.11707,-2.39081 -0.265398,-3.48707 -0.05647,-0.41739 -0.0097,-3.29843 0.04204,-3.38614 z"
       style="opacity:1;fill:url(#linearGradient1144);fill-opacity:1;stroke:none;stroke-width:1.43481171;stroke-miterlimit:4;stroke-dasharray:none;stroke-dashoffset:18.89763832;stroke-opacity:1" />
  </g>
</svg>
