<?xml version="1.0" encoding="UTF-8" standalone="no"?>
<!-- Generator: Adobe Illustrator 12.0.0, SVG Export Plug-In . SVG Version: 6.00 Build 51448)  -->

<svg
   xmlns:dc="http://purl.org/dc/elements/1.1/"
   xmlns:cc="http://creativecommons.org/ns#"
   xmlns:rdf="http://www.w3.org/1999/02/22-rdf-syntax-ns#"
   xmlns:svg="http://www.w3.org/2000/svg"
   xmlns="http://www.w3.org/2000/svg"
   xmlns:sodipodi="http://sodipodi.sourceforge.net/DTD/sodipodi-0.dtd"
   xmlns:inkscape="http://www.inkscape.org/namespaces/inkscape"
   id="Layer_1"
   space="preserve"
   sodipodi:docname="Architetto----Blocco-ghiaccio.svg"
   viewBox="0 0 412.049 50.000001"
   sodipodi:version="0.32"
   version="1.1"
   inkscape:version="0.92.3 (2405546, 2018-03-11)"
   data-lt-installed="true"
   width="412.04901"
   height="50">
  <defs
     id="defs17" />
  <sodipodi:namedview
     id="base"
     bordercolor="#666666"
     inkscape:pageshadow="2"
     inkscape:window-width="1853"
     pagecolor="#ffffff"
     inkscape:zoom="4.5813556"
     inkscape:window-x="67"
     borderopacity="1.0"
     inkscape:current-layer="Layer_1"
     inkscape:cx="94.854627"
     inkscape:cy="31.040252"
     inkscape:window-y="27"
     inkscape:window-height="1025"
     inkscape:pageopacity="0.0"
     showgrid="false"
     inkscape:window-maximized="1" />
  <g
     id="g4541"
     transform="matrix(0.39495887,0,0,0.36709395,67.756822,-20.120208)">
    <path
       sodipodi:nodetypes="cccsccssscccc"
       id="path7"
       style="clip-rule:evenodd;fill:#9ed9ff;fill-rule:evenodd"
       d="m 120.04181,148.22873 c -1.93752,27.21008 -2.15809,41.20352 -2.15809,41.20352 9.60018,3.57969 31.54907,-0.77819 39.96607,0.58581 11.01635,-1.51217 37.1183,6.1501 37.1183,6.1501 10.11894,-2.93905 12.15475,-3.56239 25.62809,-5.94868 13.26794,-0.85815 14.05899,2.81391 21.28082,-7.31784 0.13878,-13.12429 -4.98068,-19.71513 -4.71529,-32.52244 0.26538,-12.80731 6.80754,-12.80372 7.07996,-24.63126 0.27243,-11.82754 -2.75185,-11.9993 -2.59195,-22.18429 0.15989,-10.184979 3.20665,-33.356213 2.53984,-57.290198 -44.58026,-2.603007 -79.56969,5.645859 -125.81287,-1.643691 -0.50929,7.056271 -1.14067,19.459706 -0.21199,26.380943 3.40224,15.577554 2.22763,27.923449 0.64572,35.235896"
       inkscape:connector-curvature="0" />
    <path
       sodipodi:nodetypes="ccccccccccccc"
       id="path13"
       style="clip-rule:evenodd;fill:#ffffff;fill-rule:evenodd;stroke-width:0.81572181"
       d="m 214.61147,62.393651 c -11.54898,3.131556 -22.6715,-0.623681 -34.714,0.860117 -8.71762,1.07349 -15.73691,2.243235 -24.88033,1.37857 C 147.15602,63.8884 146.2551,59.871093 128.414,66.493 c 20.531,16.025966 15.09901,4.205046 24.50102,4.928591 12.17465,0.935633 23.34188,-0.829589 35.25305,-1.137932 7.1547,-0.185169 15.80103,3.013697 22.63107,6.907137 5.30056,3.02225 6.43021,27.205064 7.51537,39.097084 4.80134,16.30954 -9.30855,50.35085 -9.04915,68.30244 2.11191,-4.05496 5.5237,6.35313 16.59411,-11.17075 3.09104,-22.98545 0.686,-27.31025 5.23579,-46.9726 -1.8846,-31.964308 -3.55377,-32.471204 3.77793,-60.469853 -2.87134,-1.058807 -23.55805,-7.746094 -20.29516,-3.587544"
       inkscape:connector-curvature="0" />
    <path
       id="path19"
       style="clip-rule:evenodd;fill:#deffff;fill-rule:evenodd"
       d="m 128.41,66.5 c 17.428,6.187 34.852,5.547 52.891,3.126 13.932,-1.87 25.84,-2.015 33.626,11.829 7.097,12.615 7.747,23.132 7.013,37.344 -0.823,15.936 2.32,43.344 -4.73,57.623 -8.321,16.851 -29.062,8.651 -42.33,3.886 -6.795,-2.44 -13.897,-6.037 -21.207,-6.59 -4.639,-0.351 -9.095,1.992 -13.73,0.888 -14.958,-3.566 -4.526,-38.603 -4.352,-48.033 0.302,-16.357 -14.831,-41.382 -9.547,-55.763 0.46,-1.259 1.51,-3.286 2.37,-4.317"
       inkscape:connector-curvature="0" />
    <path
       id="path21"
       style="clip-rule:evenodd;fill:#ffffff;fill-rule:evenodd"
       d="m 138.17869,149.89 c 16.859,-8.296 24.921,-25.657 42.498,-32.444 -1.762,15.543 -14.186,26.095 -21.207,37.598 10.798,-2.304 26.471,-10.417 33.289,-18.334 -0.489,11.062 -6.3,17.321 -10.139,26.445 6.514,-0.036 2.792,10.211 12.167,10.14 -2.26,10.328 -21.162,5.069 -29.361,5.069 -7.228,0 -16.396,5.211 -22.093,0 2.932,-0.027 5.625,0.21 8.365,1.014 -15.535,8.752 -23.08,-30.863 -23.572,-40.64 4.724,2.404 7.417,6.052 12.167,7.182 -0.14,1.76 -1.06,2.86 -2.13,3.97"
       inkscape:connector-curvature="0" />
  </g>
  <metadata
     id="metadata14">
    <rdf:RDF>
      <cc:Work>
        <dc:format>image/svg+xml</dc:format>
        <dc:type
           rdf:resource="http://purl.org/dc/dcmitype/StillImage" />
        <cc:license
           rdf:resource="http://creativecommons.org/publicdomain/zero/1.0/" />
        <dc:publisher>
          <cc:Agent
             rdf:about="http://openclipart.org/">
            <dc:title>Openclipart</dc:title>
          </cc:Agent>
        </dc:publisher>
        <dc:title>Architetto -- Blocco ghiaccio</dc:title>
        <dc:date>2009-04-19T14:56:51</dc:date>
        <dc:description>Block of ice by Francesco 'Architetto' Rollandin.</dc:description>
        <dc:source>https://openclipart.org/detail/25100/architetto----blocco-ghiaccio-by-anonymous-25100</dc:source>
        <dc:creator>
          <cc:Agent>
            <dc:title>Anonymous</dc:title>
          </cc:Agent>
        </dc:creator>
        <dc:subject>
          <rdf:Bag>
            <rdf:li>block</rdf:li>
            <rdf:li>cube</rdf:li>
            <rdf:li>food</rdf:li>
            <rdf:li>ice</rdf:li>
          </rdf:Bag>
        </dc:subject>
      </cc:Work>
      <cc:License
         rdf:about="http://creativecommons.org/publicdomain/zero/1.0/">
        <cc:permits
           rdf:resource="http://creativecommons.org/ns#Reproduction" />
        <cc:permits
           rdf:resource="http://creativecommons.org/ns#Distribution" />
        <cc:permits
           rdf:resource="http://creativecommons.org/ns#DerivativeWorks" />
      </cc:License>
    </rdf:RDF>
  </metadata>
</svg>
