<?xml version="1.0" encoding="UTF-8" standalone="no"?>
<!-- Generator: Adobe Illustrator 12.0.0, SVG Export Plug-In . SVG Version: 6.00 Build 51448)  -->

<svg
   xmlns:dc="http://purl.org/dc/elements/1.1/"
   xmlns:cc="http://creativecommons.org/ns#"
   xmlns:rdf="http://www.w3.org/1999/02/22-rdf-syntax-ns#"
   xmlns:svg="http://www.w3.org/2000/svg"
   xmlns="http://www.w3.org/2000/svg"
   xmlns:sodipodi="http://sodipodi.sourceforge.net/DTD/sodipodi-0.dtd"
   xmlns:inkscape="http://www.inkscape.org/namespaces/inkscape"
   id="Layer_1"
   space="preserve"
   sodipodi:docname="ice_danger.svg"
   viewBox="0 0 412.049 50.000001"
   sodipodi:version="0.32"
   version="1.1"
   inkscape:version="0.92.3 (2405546, 2018-03-11)"
   data-lt-installed="true"
   width="412.04901"
   height="50"
   inkscape:export-filename="/home/markus/Programming/Hit Game/ice_danger.png"
   inkscape:export-xdpi="96"
   inkscape:export-ydpi="96">
  <defs
     id="defs17" />
  <sodipodi:namedview
     id="base"
     bordercolor="#666666"
     inkscape:pageshadow="2"
     inkscape:window-width="1853"
     pagecolor="#ffffff"
     inkscape:zoom="4.5813556"
     inkscape:window-x="67"
     borderopacity="1.0"
     inkscape:current-layer="Layer_1"
     inkscape:cx="135.50976"
     inkscape:cy="12.806602"
     inkscape:window-y="27"
     inkscape:window-height="1025"
     inkscape:pageopacity="0.0"
     showgrid="false"
     inkscape:window-maximized="1" />
  <metadata
     id="metadata14">
    <rdf:RDF>
      <cc:Work>
        <dc:format>image/svg+xml</dc:format>
        <dc:type
           rdf:resource="http://purl.org/dc/dcmitype/StillImage" />
        <cc:license
           rdf:resource="http://creativecommons.org/publicdomain/zero/1.0/" />
        <dc:publisher>
          <cc:Agent
             rdf:about="http://openclipart.org/">
            <dc:title>Openclipart</dc:title>
          </cc:Agent>
        </dc:publisher>
        <dc:title>Architetto -- Blocco ghiaccio</dc:title>
        <dc:date>2009-04-19T14:56:51</dc:date>
        <dc:description>Block of ice by Francesco 'Architetto' Rollandin.</dc:description>
        <dc:source>https://openclipart.org/detail/25100/architetto----blocco-ghiaccio-by-anonymous-25100</dc:source>
        <dc:creator>
          <cc:Agent>
            <dc:title>Anonymous</dc:title>
          </cc:Agent>
        </dc:creator>
        <dc:subject>
          <rdf:Bag>
            <rdf:li>block</rdf:li>
            <rdf:li>cube</rdf:li>
            <rdf:li>food</rdf:li>
            <rdf:li>ice</rdf:li>
          </rdf:Bag>
        </dc:subject>
      </cc:Work>
      <cc:License
         rdf:about="http://creativecommons.org/publicdomain/zero/1.0/">
        <cc:permits
           rdf:resource="http://creativecommons.org/ns#Reproduction" />
        <cc:permits
           rdf:resource="http://creativecommons.org/ns#Distribution" />
        <cc:permits
           rdf:resource="http://creativecommons.org/ns#DerivativeWorks" />
      </cc:License>
    </rdf:RDF>
  </metadata>
  <path
     inkscape:connector-curvature="0"
     d="m 115.1684,19.206768 c -0.76524,7.60268 -0.85236,11.512542 -0.85236,11.512542 3.79168,1.000189 12.46059,-0.217432 15.78496,0.163679 4.351,-0.42251 14.6602,1.718379 14.6602,1.718379 3.99656,-0.82119 4.80062,-0.995355 10.12204,-1.662101 5.24029,-0.239774 5.55272,0.786226 8.40505,-2.044654 0.0548,-3.667016 -1.96717,-5.508541 -1.86235,-9.08699 0.10482,-3.578448 2.6887,-3.577445 2.7963,-6.88214 0.10759,-3.3046944 -1.08687,-3.3526851 -1.02372,-6.1984396 0.0632,-2.8457522 1.2665,-9.3199513 1.00313,-16.0072683 -17.60736,-0.7272981 -31.42675,1.5774912 -49.6909,-0.4592583 -0.20115,1.9715698 -0.45052,5.4371732 -0.0837,7.3710135 1.34374,4.3524737 0.87982,7.8020007 0.25503,9.845147"
     style="clip-rule:evenodd;fill:#9ed9ff;fill-rule:evenodd;stroke-width:0.332196"
     id="path7"
     sodipodi:nodetypes="cccsccssscccc" />
  <path
     inkscape:connector-curvature="0"
     d="m 118.47349,-3.6287909 c 6.88334,1.7286896 13.76511,1.5498693 20.88977,0.8734255 5.50257,-0.5224906 10.20574,-0.5630045 13.28089,3.30510245 2.80302,3.52471625 3.05974,6.46323735 2.76984,10.43416595 -0.32505,4.452625 0.91631,12.110606 -1.86815,16.100254 -3.28645,4.708283 -11.4783,2.417149 -16.71861,1.085775 -2.68375,-0.681753 -5.48874,-1.686778 -8.37589,-1.84129 -1.83222,-0.09807 -3.59215,0.556578 -5.42279,0.248113 -5.90779,-0.996365 -1.78758,-10.785938 -1.71886,-13.420744 0.11928,-4.5702567 -5.85763,-11.5624103 -3.77067,-15.5805587 0.18168,-0.3517731 0.59639,-0.9181306 0.93605,-1.206199"
     style="clip-rule:evenodd;fill:#deffff;fill-rule:evenodd;stroke-width:0.332196"
     id="path19" />
  <path
     inkscape:connector-curvature="0"
     d="m 157.1737,13.815662 4.08612,19.695537 c -6.12718,7.02759 -3.94798,4.518714 -3.05431,9.515064 0.83537,1.628882 1.67073,3.257763 2.5061,4.886646 -1.15825,-0.0044 -2.31651,-0.0087 -3.47476,-0.01317 -0.23218,2.159701 -0.46437,4.319403 -0.69655,6.479104 -0.76967,-3.612421 -1.53935,-7.224844 -2.30902,-10.837265 -0.40954,3.655728 -0.81909,7.311454 -1.22863,10.967181 -0.33236,-3.163264 -0.66473,-6.326532 -0.99709,-9.489797 -1.27839,-4.907857 -1.99933,-1.499251 -3.22896,1.477383 l -1.76883,7.414772 c -0.40954,-3.408259 -0.81907,-6.81652 -1.22861,-10.22478 l -0.99711,9.129728 -2.18889,-16.507396 c -0.3651,-2.75336 -1.40781,5.164657 -2.11172,7.746987 -0.29232,1.929011 -0.58465,3.858022 -0.87697,5.787035 0,0 -2.21783,-13.577889 -2.49759,-10.015061 l -1.10847,14.116826 c -0.75536,-3.583348 -1.51071,-7.166698 -2.26607,-10.750045 -0.44667,1.806517 -0.89333,3.613031 -1.34,5.419547 l -0.9963,-13.237165 c -1.71713,9.870083 -2.50793,9.579796 -3.30452,15.297104 -0.0806,-5.610668 0.30181,-11.466328 -0.24183,-16.832002 -0.44075,0.718339 -0.88151,1.436677 -1.32226,2.155016 -1.26392,3.780762 -1.44743,10.37895 -2.09397,14.649698 0.35669,-6.631473 -0.21267,-9.955532 -0.39618,-14.014572 -0.91493,0.825984 -1.82987,1.651965 -2.7448,2.477949 l -2.74479,5.172879 c -0.60625,2.663437 -1.21249,5.326873 -1.81874,7.990309 -0.50883,-3.632944 0.83768,-6.572943 -1.5265,-10.898834 0.53548,-2.105483 1.76165,-4.059273 1.60645,-6.31645 -0.15941,-2.318427 -2.49286,-5.770151 -2.49286,-5.770151 0,0 1.92274,-1.786206 2.52981,-7.562905 0.60707,-5.776699 4.9888,-9.438316 4.9888,-9.438316"
     style="clip-rule:evenodd;fill:#deffff;fill-rule:evenodd;stroke-width:0.39849928"
     id="path19-3"
     sodipodi:nodetypes="cccccccccccccsccscccccccccccccaczc" />
  <path
     sodipodi:nodetypes="ccccccccccccsccscccccccccccccacccc"
     id="path855"
     style="clip-rule:evenodd;fill:#ffffff;fill-rule:evenodd;stroke-width:0.39598754"
     d="m 150.40803,29.366442 10.75201,2.048298 c -6.11416,6.954068 -5.02,4.897067 -4.12823,9.841135 0.0933,2.196015 -0.943,0.413373 0.11381,4.396855 l -0.69507,6.411313 c -0.76803,-3.574626 -1.53608,-7.149252 -2.30411,-10.723876 -0.40867,3.617483 -0.81735,7.234954 -1.22602,10.852433 -0.33165,-3.130169 -0.66332,-6.260338 -0.99497,-9.390506 -1.27567,-4.856503 -1.99508,-1.483561 -3.2221,1.461925 l -1.76507,7.337189 c -0.40867,-3.372596 -0.81733,-6.745197 -1.226,-10.117796 l -0.99499,9.034205 -2.18423,-16.334685 c -0.36433,-2.724543 -1.40482,5.110622 -2.10724,7.665931 -0.29169,1.908836 -0.5834,3.817661 -0.8751,5.726489 0,0 -2.21312,-13.435827 -2.49228,-9.910276 l -1.10612,13.969132 -2.26125,-10.637573 c -0.44572,1.787619 -0.89143,3.575229 -1.33715,5.36284 l -0.99418,-13.098658 c -1.71348,9.766808 -2.5026,9.479563 -3.2975,15.137051 -0.0804,-5.551971 0.30117,-11.346359 -0.24132,-16.655891 -0.43981,0.710816 -0.87963,1.421638 -1.31945,2.132468 -1.26123,3.741197 -1.44435,10.27035 -2.08951,14.496415 0.35593,-6.562092 -0.21222,-9.85137 -0.39534,-13.867934 -0.91299,0.817334 -1.82598,1.634675 -2.73897,2.452021 l -2.73895,5.118752 c -0.60497,2.635569 -1.20992,5.271138 -1.81488,7.906708 -0.50775,-3.594934 2.07066,-5.908295 -0.28849,-10.18892 0.53434,-2.083459 1.77191,-4.093168 1.60303,-6.25036 -0.1647,-2.103797 -2.48756,-5.709781 -2.48756,-5.709781 0,0 0.74977,0.324247 1.57525,-0.06604 8.95237,-2.459075 7.26788,-1.442434 8.99647,2.590942 6.93602,3.120992 16.35596,2.321866 16.35596,2.321866"
     inkscape:connector-curvature="0" />
  <path
     inkscape:connector-curvature="0"
     d="m 122.33172,19.670938 c 6.65861,-2.317958 9.84277,-7.168739 16.78496,-9.065073 -0.69591,4.34282 -5.60288,7.291119 -8.37589,10.505136 4.26477,-0.643754 10.45496,-2.910581 13.14779,-5.122644 -0.19314,3.090797 -2.48824,4.839605 -4.00449,7.388912 2.57276,-0.01004 1.10272,2.853022 4.80546,2.833184 -0.8926,2.885713 -8.35812,1.416312 -11.59638,1.416312 -8.79593,1.041651 -13.24434,3.858992 -14.73197,-11.071772 1.86579,0.671694 2.92941,1.69097 4.80546,2.006701 -0.0553,0.491755 -0.41865,0.799102 -0.84126,1.109244"
     style="clip-rule:evenodd;fill:#ffffff;fill-rule:evenodd;stroke-width:0.332196"
     id="path21"
     sodipodi:nodetypes="cccccccccc" />
  <path
     inkscape:connector-curvature="0"
     d="m 152.51953,-4.7761325 c -4.56138,0.8749779 -8.95431,-0.1742606 -13.71061,0.2403225 -3.4431,0.2999404 -6.21543,0.626775 -9.8267,0.3851818 -3.10482,-0.2078612 -3.46065,-1.330324 -10.50715,0.5198815 8.1089,4.4777631 5.96349,1.1749183 9.6769,1.3770816 4.80848,0.2614222 9.21908,-0.2317927 13.9235,-0.3179458 2.82581,-0.051738 6.24076,0.8420473 8.93834,1.92990066 2.09351,0.84443696 2.53967,7.60127794 2.96826,10.92398824 1.89634,4.556996 -3.67649,14.068369 -3.57404,19.084164 0.83412,-1.132984 1.25557,0.242851 5.62792,-4.653439 1.22084,-6.42229 1.19701,-6.098412 2.99399,-11.592206 -0.74433,-8.9310432 -1.40359,-9.0726734 1.49213,-16.8956848 -1.13406,-0.2958379 -9.30446,-2.164311 -8.01575,-1.0023841"
     style="clip-rule:evenodd;fill:#ffffff;fill-rule:evenodd;stroke-width:0.27097952"
     id="path13"
     sodipodi:nodetypes="ccccccccccccc" />
</svg>
