<?xml version="1.0" encoding="UTF-8" standalone="no"?>
<!-- Created with Inkscape (http://www.inkscape.org/) -->

<svg
   xmlns:dc="http://purl.org/dc/elements/1.1/"
   xmlns:cc="http://creativecommons.org/ns#"
   xmlns:rdf="http://www.w3.org/1999/02/22-rdf-syntax-ns#"
   xmlns:svg="http://www.w3.org/2000/svg"
   xmlns="http://www.w3.org/2000/svg"
   xmlns:sodipodi="http://sodipodi.sourceforge.net/DTD/sodipodi-0.dtd"
   xmlns:inkscape="http://www.inkscape.org/namespaces/inkscape"
   id="svg2"
   version="1.1"
   inkscape:version="0.92.3 (2405546, 2018-03-11)"
   width="1000"
   height="600"
   sodipodi:docname="sea-color-01.svg"
   data-lt-installed="true"
   inkscape:export-filename="/home/markus/Programming/Hit Game/ocean.png"
   inkscape:export-xdpi="96"
   inkscape:export-ydpi="96">
  <metadata
     id="metadata8">
    <rdf:RDF>
      <cc:Work
         rdf:about="">
        <dc:format>image/svg+xml</dc:format>
        <dc:type
           rdf:resource="http://purl.org/dc/dcmitype/StillImage" />
        <dc:title></dc:title>
      </cc:Work>
    </rdf:RDF>
  </metadata>
  <defs
     id="defs6" />
  <sodipodi:namedview
     pagecolor="#ffffff"
     bordercolor="#666666"
     borderopacity="1"
     objecttolerance="10"
     gridtolerance="10"
     guidetolerance="10"
     inkscape:pageopacity="0"
     inkscape:pageshadow="2"
     inkscape:window-width="1853"
     inkscape:window-height="1025"
     id="namedview4"
     showgrid="false"
     borderlayer="true"
     fit-margin-top="0"
     fit-margin-left="0"
     fit-margin-right="0"
     fit-margin-bottom="0"
     inkscape:zoom="0.97005861"
     inkscape:cx="321.7809"
     inkscape:cy="85.744362"
     inkscape:window-x="67"
     inkscape:window-y="27"
     inkscape:window-maximized="1"
     inkscape:current-layer="g4200" />
  <g
     id="g2987"
     transform="matrix(2.854246,0,0,1.9100971,-243.93088,121.86678)">
    <g
       id="g4037"
       transform="matrix(1.0450241,0,0,1.0594901,-11.019562,-3.1594569)">
      <g
         id="g4173">
        <g
           id="g4200"
           transform="translate(7.2838941,-0.71571105)">
          <path
             sodipodi:nodetypes="ccccc"
             inkscape:connector-curvature="0"
             id="path2997"
             d="m 77.835813,-58.206821 c 119.401717,-0.712166 237.790297,-1.396801 345.773627,1.48169 L 421.71674,85.919516 83.909623,82.388757 c -1.562764,-0.115718 -6.07381,-140.595578 -6.07381,-140.595578 z"
             style="fill:#b5e7ee;fill-opacity:1;stroke-width:1.42768097" />
          <path
             style="fill:#67e4f7;fill-opacity:1;stroke-width:1.42768097"
             d="m 82.093943,174.73328 c -2.975975,-44.94636 -1.975163,-92.693821 1.81568,-92.344523 8.879105,-0.03573 17.519907,-12.473888 22.626787,-15.166489 6.17778,-3.257236 15.12531,-6.424934 19.65362,-6.153585 6.6277,0.39715 11.45647,16.667773 18.67926,17.968636 4.29391,0.773362 18.60643,-11.830006 23.1746,-11.153764 5.60457,0.829653 11.38173,14.16479 17.2992,14.992579 5.51312,0.771226 23.82109,-4.379061 29.51528,-3.791243 3.49905,0.361222 16.18063,4.047898 19.70671,4.391446 5.48716,0.534615 25.765,-6.534325 31.20825,-6.212091 5.99851,0.355121 22.1827,7.616286 26.69407,3.508615 17.12181,-15.589758 31.64327,-24.707905 43.69159,-18.186761 76.42239,41.36356 55.64323,-6.300678 84.53681,-12.549519 -0.77534,-0.54083 6.10887,123.492279 6.10887,123.492279 1.00471,3.51798 -241.46948,5.55811 -344.710727,1.20442 z"
             id="path2995"
             inkscape:connector-curvature="0"
             sodipodi:nodetypes="ccssssssssssccc" />
          <path
             style="fill:#1689b2;stroke-width:1.56663847"
             d="m 85.144173,108.52715 c 15.695997,-0.006 27.221577,-9.223112 39.416457,0.15941 12.18121,9.37202 26.6769,4.61556 39.1536,6.39163 10.1165,1.44007 21.01185,-2.26209 29.41317,4.17429 7.20426,5.51925 13.77505,19.89107 21.22391,16.22725 10.30013,-5.06629 17.11504,6.76212 27.63062,5.09615 6.58957,-1.04397 12.83533,-17.0401 18.75747,-17.96954 5.91824,-0.92881 15.73379,12.22981 21.02579,11.44938 7.6587,-1.12948 15.37243,-17.1662 21.79692,-18.09891 7.67419,-1.11415 26.91687,19.62418 32.56951,16.2737 46.61875,-27.63227 52.64583,-22.58395 54.9914,-15.96148 1.17279,3.31123 1.42521,7.016 5.37102,7.22601 3.94581,0.21 13.83148,-15.0454 24.07533,-14.76137 l 3.31558,78.57351 c -114.75093,13.8545 -229.50189,0.91687 -344.252857,0.869 z"
             id="path2993"
             inkscape:connector-curvature="0"
             sodipodi:nodetypes="cssssssssssscccc" />
          <path
             style="fill:#036496;stroke-width:1.42768097"
             d="m 78.501124,244.4965 c -8.469748,-1.73497 347.545916,-2.28734 347.146816,-2.02603 0,0 -4.13168,-95.60319 -4.11548,-93.35646 -8.6471,-0.21526 -22.67531,21.34472 -29.44675,21.96677 -6.77144,0.62206 -11.05155,-3.84534 -15.72073,-8.56993 -9.33836,-9.44919 -20.23298,-19.9272 -55.72696,7.22399 -12.61702,9.65141 -30.06423,-11.15127 -57.41765,5.77814 -6.96199,4.30887 -15.80415,-0.69263 -23.79543,-1.24655 -6.35421,-0.44044 -21.83782,-24.96088 -28.13131,-25.34687 -5.48682,-0.33651 -24.96401,13.43705 -30.26978,13.06578 -4.84247,-0.33886 -11.70456,-10.64147 -16.34606,-10.95745 -5.80943,-0.39554 -18.45727,14.14071 -23.83412,13.69147 -35.91107,-3.00036 -46.7188,-22.30107 -56.872165,-17.25258 0.0058,14.06269 -5.470381,97.02972 -5.470381,97.02972 z"
             id="path2991"
             inkscape:connector-curvature="0"
             sodipodi:nodetypes="cccssssssssscc" />
          <path
             style="fill:#013870;stroke-width:1.42768097"
             d="m 420.2612,193.93624 c -30.16321,-0.49661 -32.27889,17.8625 -53.11467,9.41676 -11.61227,-4.70701 -32.71019,12.45187 -43.30763,11.4704 -4.82021,-0.44644 -24.74892,-6.80669 -30.33271,-7.4413 -5.68234,-0.64577 -28.51414,7.66064 -34.79077,6.62029 -10.312,-1.70923 -22.19357,-10.46689 -34.49653,-12.99509 -11.86215,-2.43762 -41.37985,7.81816 -54.95182,4.10025 -6.91603,-1.89458 -20.51775,5.78682 -27.82224,4.30034 -5.46449,-1.11203 -13.78574,-16.22026 -19.40085,-17.45448 -11.33708,-2.49193 -20.22342,5.31787 -36.510825,3.45407 -2.167605,3.26217 -3.988773,50.88981 -3.988773,50.88981 47.324328,-1.72959 341.388208,-0.95898 343.083338,-2.11141 z"
             id="path2989"
             inkscape:connector-curvature="0"
             sodipodi:nodetypes="csssssssscccc" />
          <path
             style="fill:#000000;fill-opacity:1;stroke:#000000;stroke-width:0;stroke-linecap:butt;stroke-linejoin:miter;stroke-miterlimit:4;stroke-dasharray:none;stroke-opacity:1"
             d="m 411.24783,270.07953 c -7.15733,-7.47646 -25.9821,-1.23836 -32.74025,-5.51641 -2.10612,-1.75522 -14.48323,-10.08518 -14.48323,-10.08518 0.65369,3.61438 2.63855,4.89097 1.39463,8.32996 l 3.13261,2.00597 c -6.75372,-0.83468 -11.45195,-0.19983 -17.42322,1.75521 -7.84452,-4.02372 -5.45211,-0.71682 -9.57317,2.00595 -11.56865,-0.87258 -21.73179,-9.81939 -30.63419,-11.5343 l 2.87193,4.51344 2.29758,-0.5015 13.97684,14.04176 c 1.76608,0.77253 -3.68383,12.39641 -2.48901,11.53431 6.64526,1.8503 5.80009,-15.24341 12.06221,-12.78802 0.76584,0.50147 5.16951,1.7552 5.16951,1.7552 l -3.25487,1.003 c 6.57149,4.13147 -0.24196,6.83457 7.65863,0.50147 l 7.08417,-0.25074 -0.76585,1.50449 -6.50977,1.00298 c 7.09669,2.10257 10.06205,5.29893 13.59392,0.50148 0,0 13.78538,0.75225 14.55125,1.00298 -0.27566,4.18938 0.31889,9.50283 0.76572,13.79104 v 2.00597 l 2.48903,-0.50149 8.99882,-17.80296 c 6.57285,0.64451 10.91209,5.8e-4 15.89146,-3.25971 l -5.361,-0.75224 10.14758,-2.50744 z"
             id="path4167"
             inkscape:connector-curvature="0"
             sodipodi:nodetypes="ccccccccccccccccccccccccccccc" />
          <rect
             style="opacity:0.85100002;fill:#b5e7ee;fill-opacity:1;stroke:none;stroke-width:1.71217299;stroke-linecap:butt;stroke-linejoin:round;stroke-miterlimit:4;stroke-dasharray:none;stroke-dashoffset:18.89763832;stroke-opacity:1"
             id="rect2643"
             width="200.39328"
             height="82.844276"
             x="45.206993"
             y="-145.08456" />
        </g>
      </g>
    </g>
  </g>
</svg>
