<?xml version="1.0" encoding="UTF-8" standalone="no"?>
<!-- Created with Inkscape (http://www.inkscape.org/) -->

<svg
   xmlns:dc="http://purl.org/dc/elements/1.1/"
   xmlns:cc="http://creativecommons.org/ns#"
   xmlns:rdf="http://www.w3.org/1999/02/22-rdf-syntax-ns#"
   xmlns:svg="http://www.w3.org/2000/svg"
   xmlns="http://www.w3.org/2000/svg"
   xmlns:sodipodi="http://sodipodi.sourceforge.net/DTD/sodipodi-0.dtd"
   xmlns:inkscape="http://www.inkscape.org/namespaces/inkscape"
   id="svg2"
   sodipodi:docname="pony.svg"
   viewBox="0 0 200 200"
   version="1.1"
   inkscape:version="0.92.3 (2405546, 2018-03-11)"
   data-lt-installed="true"
   width="200"
   height="200"
   inkscape:export-filename="/home/markus/Programming/Hit Game/pony.50.png"
   inkscape:export-xdpi="42.204124"
   inkscape:export-ydpi="42.204124">
  <defs
     id="defs105" />
  <sodipodi:namedview
     id="base"
     fit-margin-left="0"
     inkscape:zoom="2.8284271"
     borderopacity="1.0"
     inkscape:current-layer="layer1"
     inkscape:cx="74.61326"
     inkscape:cy="115.99708"
     inkscape:window-maximized="1"
     inkscape:snap-bbox="true"
     showgrid="false"
     fit-margin-right="0"
     inkscape:document-units="px"
     bordercolor="#666666"
     inkscape:window-x="67"
     inkscape:window-y="27"
     fit-margin-bottom="0"
     inkscape:window-width="1853"
     inkscape:pageopacity="0.0"
     inkscape:pageshadow="2"
     pagecolor="#ffffff"
     inkscape:window-height="1025"
     fit-margin-top="0">
    <inkscape:grid
       id="grid3788"
       originy="-322.91448"
       enabled="true"
       originx="-389.84632"
       visible="true"
       snapvisiblegridlinesonly="true"
       type="xygrid"
       empspacing="4"
       spacingx="1"
       spacingy="1" />
  </sodipodi:namedview>
  <g
     id="layer1"
     inkscape:label="Layer 1"
     inkscape:groupmode="layer"
     transform="translate(-389.85,-529.445)">
    <circle
       style="opacity:1;fill:#ff00ff;fill-opacity:1;stroke:none;stroke-width:7.58692074;stroke-miterlimit:4;stroke-dasharray:none;stroke-dashoffset:18.89763832;stroke-opacity:1"
       id="path3829"
       cx="489.85001"
       cy="629.44501"
       r="56.866482" />
    <g
       id="g4391"
       transform="translate(-607.03021,863.72817)">
      <g
         id="g4245"
         transform="matrix(0.33606,0,0,0.33606,786.84,-346.8)">
        <g
           id="g4247"
           style="fill:#606060"
           transform="translate(-107.48,-62.225)">
          <path
             id="path4249"
             d="m 909.31,350.28 c 0,0 -0.75,-14.5 0.75,-21 11,-15.25 50.71,-25.043 58.195,-24.067 7.4851,0.97564 8.8646,7.4892 14.658,9.737 10.067,3.9061 19.806,5.2778 23.342,9.763 3.5355,4.4852 -0.4094,23.645 3.9154,29.525 4.4255,6.0166 13.412,7.5266 20.335,18.122 6.9221,10.595 -17.494,19.669 -45.75,26.5 z"
             sodipodi:nodetypes="cczszszcc"
             style="fill:#606060"
             inkscape:connector-curvature="0" />
          <path
             id="path4251"
             d="m 983.59,480.67 c 0,0 2.9069,11.21 3.7819,21.585 0.375,5 -3.9105,14.767 -1.6605,15.892 8.25,3.625 22.62,1.4822 26.87,-1.7678 8.625,-6.375 -5.6568,-47.73 -5.6568,-47.73 z"
             sodipodi:nodetypes="cccccc"
             style="fill:#606060"
             inkscape:connector-curvature="0" />
          <path
             id="path4254"
             d="m 1064.5,466.17 c 0,0 -17.257,20.884 -8.1318,43.134 3,6.125 25.577,-1.0711 27.577,-7.0711 0.875,-3.5 0.2929,-5.614 -0.7071,-6.364 -1.25,-0.875 -5.1354,-1.7855 -6.0104,-3.5355 -0.625,-1.625 6.0104,-16.971 6.0104,-16.971 z"
             sodipodi:nodetypes="ccccccc"
             style="fill:#606060"
             inkscape:connector-curvature="0" />
          <path
             id="path4256"
             d="m 1080.4,399.53 c 0,0 7.955,-3.2704 23.511,0.26516 19.445,5.3033 37.212,37.035 49.409,55.243 5.1265,6.1872 31.643,21.39 12.198,36.946 -3.7123,1.7678 -13.258,6.364 -27.047,-8.6621 -6.0104,-6.7175 -16.087,-26.517 -28.108,-54.094 0,0 -8.1317,-19.092 -10.607,-19.092 -3.7123,0 -11.314,7.0711 -11.314,7.0711 z"
             sodipodi:nodetypes="ccccccccc"
             style="fill:#606060"
             inkscape:connector-curvature="0" />
        </g>
        <path
           id="path4258"
           sodipodi:nodetypes="cccccccccccccccccccc"
           style="fill:#393939"
           inkscape:connector-curvature="0"
           d="m 780.08,339.83 c 12.139,-25.927 13.603,-69.311 43.855,-71.087 60.828,-8.6277 33.556,46.96 61.365,70.151 21.744,8.2201 32.07,-5.447 75.307,-6.0104 39.068,-1.8562 30.759,61.165 30.759,61.165 0.8839,11.579 22.539,14.319 25.809,59.751 -6.0104,6.4524 -22.893,6.8943 -28.638,5.3033 -4.6846,-1.6794 -6.7175,-28.461 -9.8995,-30.052 0,0 -44.548,-24.484 -47.73,-24.749 -6.7175,0.44194 -53.033,18.738 -53.033,18.738 -4.0658,1.149 -14.319,-0.17677 -16.97,1.4142 -1.2879,0.58857 -2.7872,12.336 6.0104,17.678 -4.6811,9.3632 -10.607,17.671 -22.981,20.506 -15.114,-9.6343 -9.3691,-41.896 -8.1317,-46.669 2.4749,-6.9827 17.324,-21.655 14.938,-23.335 -13.435,-11.137 -8.8763,-43.524 -10.556,-43.965 -6.0104,-2.2981 -31.113,11.49 -33.588,12.374 -1.6794,0.61872 -6.3211,-1.3536 -7.7353,-1.7071 -1.149,-0.26517 -6.8488,2.149 -7.8211,1 -4.4352,-6.0535 -10.251,-10.726 -10.96,-20.506 z" />
      </g>
      <g
         id="g4260"
         transform="translate(272,-578.5)">
        <path
           id="path4262"
           d="m 839,321.94 c -1.5011,0 -2.7188,1.2177 -2.7188,2.7188 0,1.213 0.80909,2.2129 1.9062,2.5625 l -2.375,18.562 3.7812,0.1875 -0.21875,-18.625 c 1.3272,-0.17949 2.3438,-1.3111 2.3438,-2.6875 0,-1.5011 -1.2177,-2.7188 -2.7188,-2.7188 z"
           style="fill:#393939;fill-opacity:0.49020003"
           inkscape:connector-curvature="0" />
        <path
           id="path4264"
           sodipodi:nodetypes="cccccccc"
           d="m 850.19,301.8 -8.875,12.25 5.3125,-0.75 -5.4375,8.25 9.3125,-10 -6.3125,0.75 7.6875,-9.1875 z"
           inkscape:transform-center-x="-7.625"
           inkscape:transform-center-y="-13"
           inkscape:connector-curvature="0"
           style="fill:#393939;fill-opacity:0.49020003" />
        <path
           id="path4266"
           style="fill:#393939;fill-opacity:0.49020003"
           d="m 863.92,319.7 -15.121,0.41632 3.8291,3.7581 -9.8553,0.70843 13.603,1.3005 -4.4378,-4.5515 11.969,0.50591 z"
           sodipodi:nodetypes="cccccccc"
           inkscape:transform-center-y="-1.883725"
           inkscape:connector-curvature="0"
           inkscape:transform-center-x="-14.44176" />
        <path
           id="path4268"
           sodipodi:nodetypes="cccccccc"
           d="m 827.63,301.8 4.3158,14.498 2.639,-4.6712 3.235,9.3361 -2.2644,-13.476 -3.2478,5.4646 -2.6091,-11.692 z"
           inkscape:transform-center-x="6.18543"
           inkscape:transform-center-y="-13.56372"
           inkscape:connector-curvature="0"
           style="fill:#393939;fill-opacity:0.49020003" />
        <path
           id="path4270"
           style="fill:#393939;fill-opacity:0.49020003"
           d="m 814.75,316.48 13.304,7.2001 -1.437,-5.1691 8.8892,4.3141 -11.13,-7.9276 1.5675,6.1606 -10.112,-6.4225 z"
           sodipodi:nodetypes="cccccccc"
           inkscape:transform-center-y="-5.52108"
           inkscape:connector-curvature="0"
           inkscape:transform-center-x="13.773915" />
        <path
           id="path4272"
           sodipodi:nodetypes="cccccccc"
           d="m 858.08,341.49 -9.5356,-11.743 -0.65053,5.3256 -6.5616,-7.3875 7.249,11.583 0.90936,-6.2915 6.8848,9.8035 z"
           inkscape:transform-center-x="-10.80192"
           inkscape:transform-center-y="10.559985"
           inkscape:connector-curvature="0"
           style="fill:#393939;fill-opacity:0.49020003" />
      </g>
    </g>
  </g>
  <metadata
     id="metadata102">
    <rdf:RDF>
      <cc:Work>
        <dc:format>image/svg+xml</dc:format>
        <dc:type
           rdf:resource="http://purl.org/dc/dcmitype/StillImage" />
        <cc:license
           rdf:resource="http://creativecommons.org/publicdomain/zero/1.0/" />
        <dc:publisher>
          <cc:Agent
             rdf:about="http://openclipart.org/">
            <dc:title>Openclipart</dc:title>
          </cc:Agent>
        </dc:publisher>
        <dc:title></dc:title>
      </cc:Work>
      <cc:License
         rdf:about="http://creativecommons.org/publicdomain/zero/1.0/">
        <cc:permits
           rdf:resource="http://creativecommons.org/ns#Reproduction" />
        <cc:permits
           rdf:resource="http://creativecommons.org/ns#Distribution" />
        <cc:permits
           rdf:resource="http://creativecommons.org/ns#DerivativeWorks" />
      </cc:License>
    </rdf:RDF>
  </metadata>
</svg>
