<?xml version="1.0" encoding="UTF-8" standalone="no"?>
<!-- Created with Inkscape (http://www.inkscape.org/) -->
<svg xmlns:inkscape="http://www.inkscape.org/namespaces/inkscape" xmlns:rdf="http://www.w3.org/1999/02/22-rdf-syntax-ns#" xmlns="http://www.w3.org/2000/svg" xmlns:sodipodi="http://sodipodi.sourceforge.net/DTD/sodipodi-0.dtd" xmlns:cc="http://creativecommons.org/ns#" xmlns:xlink="http://www.w3.org/1999/xlink" xmlns:dc="http://purl.org/dc/elements/1.1/" xmlns:svg="http://www.w3.org/2000/svg" xmlns:ns1="http://sozi.baierouge.fr" id="svg24159" sodipodi:docname="Skull.svg" inkscape:export-filename="C:\Users\USER\Desktop\Skull.png" viewBox="0 0 510 520" inkscape:export-xdpi="135" version="1.0" inkscape:export-ydpi="135" inkscape:version="0.48.2 r9819" data-lt-installed="true">
  <title id="title6466">Skull</title>
  <sodipodi:namedview id="namedview42" inkscape:showpageshadow="false" inkscape:zoom="0.57675396" borderopacity="1" inkscape:current-layer="svg24159" inkscape:cx="627.22795" inkscape:guide-bbox="true" inkscape:window-maximized="1" showgrid="false" showguides="true" bordercolor="#666666" inkscape:window-x="-8" guidetolerance="10" objecttolerance="10" inkscape:window-y="-8" inkscape:window-width="1600" inkscape:pageopacity="0" inkscape:pageshadow="2" pagecolor="#ffffff" gridtolerance="10" inkscape:cy="379.38902" inkscape:window-height="850"/>
  <defs id="defs24161">
    <linearGradient id="linearGradient12778">
      <stop id="stop12780" style="stop-color:#666666" offset="0"/>
      <stop id="stop12782" style="stop-color:#000000" offset="1"/>
    </linearGradient>
    <linearGradient id="linearGradient12690">
      <stop id="stop12692" style="stop-color:#666666" offset="0"/>
      <stop id="stop12694" style="stop-color:#ffffff;stop-opacity:0" offset="1"/>
    </linearGradient>
    <linearGradient id="linearGradient6464" y2="371.1" gradientUnits="userSpaceOnUse" x2="165.27" y1="371.1" x1="1.7744" inkscape:collect="always">
      <stop id="stop4118" style="stop-color:#fff696" offset="0"/>
      <stop id="stop4329" style="stop-color:#ffffd4" offset=".5"/>
      <stop id="stop4120" style="stop-color:#ffee94" offset="1"/>
    </linearGradient>
    <filter id="filter12399" inkscape:collect="always" color-interpolation-filters="sRGB">
      <feGaussianBlur id="feGaussianBlur12401" stdDeviation="20.219402" inkscape:collect="always"/>
    </filter>
    <clipPath id="clipPath12407" clipPathUnits="userSpaceOnUse">
      <path id="path12409" d="m705.75 503.4c-195.54 0-354.06 157.81-354.06 352.49 0 60.263 15.226 117 42 166.61 3.4886 37.503 5.3532 85.993 9.875 120.55v3.1289c0.68114 4.8737 1.4081 9.5592 2.2188 13.735 1.0045 12.691 3.5418 24.466 7 34.698 2.4746 12.686 5.755 25.005 14.375 34.604 6.4087 7.1372 17.061 9.5693 27.188 12.484 5.2213 2.483 18.375 6.2889 18.375 6.2889l59.156 19.18-51.312-8.1663c0.0168 0.027-0.0168 0.069 0 0.094l-0.5-0.094c6.3211 10.429 11.969 25.249 11.969 25.249s0.90529 6.9227 2.1562 15.957c-76.387-27.484-155.97-56.357-197.94-72.119 0.78751-1.7394 1.5327-3.521 2.1875-5.3503 13.013-36.355-5.876-76.392-42.188-89.421-7.9432-2.8501-16.058-4.1532-24.031-4.0988-28.477 0.1951-55.115 17.935-65.281 46.338-6.459 18.045-5.051 37.022 2.4375 53.127-15.995 7.6782-29.105 21.383-35.562 39.423-13.013 36.356 5.876 76.392 42.188 89.421s76.299-5.8518 89.312-42.208c0.56888-1.5892 1.0833-3.2177 1.5312-4.8182 0.13267 0.017 0.24177 0.044 0.375 0.062 39.326 11.956 142.3 48.73 231.25 80.786-0.45215 6.6663-0.54231 13.41-0.25 20.087-0.19308 2.6179-0.33467 5.2265-0.40625 7.8221-75.494 31.88-152.56 64.033-184.97 75.873-0.13201 0.024-0.27472 0.039-0.40625 0.062-0.53526-1.5732-1.1259-3.1376-1.7812-4.6931-14.992-35.584-55.928-52.274-91.469-37.264-35.54 15.01-52.211 56.028-37.219 91.611 7.4388 17.656 21.264 30.635 37.656 37.42-6.5919 16.494-6.9098 35.528 0.53125 53.189 14.992 35.584 55.928 52.243 91.469 37.233 35.54-15.01 52.21-55.996 37.219-91.58-0.75435-1.7905-1.5868-3.5632-2.4688-5.2566 37.327-16.416 105.56-45.544 174.06-74.59 10.731 24.099 24.574 47.563 41.469 59.791 4.2012 3.0408 8.4463 5.8781 13 8.4164 7.7709 5.0818 15.817 9.2459 23.812 12.265 23.883 8.0297 42.843 12.679 63.281 15.206 3.924 0.4851 7.8837 0.883 11.969 1.2202 0.17559 0.013 0.35527-0.014 0.53125 0 4.0671 0.3292 8.2415 0.6752 12.562 0.876 4.637 0.2205 9.4672 0.3147 14.5 0.4069 1.3482-0.027 2.6444-0.091 3.9688-0.1253h0.4375c1.4985 0.04 2.9605 0.098 4.5 0.1253 14.4-0.2771 26.995-0.9991 39.031-2.5031 20.438-2.5272 39.398-7.1763 63.281-15.206 7.995-3.0189 16.01-7.1831 23.781-12.265 4.5538-2.5383 8.8301-5.3756 13.031-8.4164 16.895-12.229 30.738-35.693 41.469-59.791 68.506 29.046 136.7 58.174 174.03 74.59-0.8819 1.6934-1.6833 3.4661-2.4376 5.2566-14.992 35.583 1.6784 76.57 37.219 91.58 35.54 15.01 76.477-1.6491 91.469-37.233 7.4411-17.662 7.0919-36.696 0.5-53.189 16.393-6.7852 30.217-19.764 37.656-37.42 14.992-35.584-1.6471-76.601-37.188-91.611-35.54-15.01-76.508 1.6804-91.5 37.264-0.6553 1.5555-1.246 3.1198-1.7813 4.6931-0.1315-0.024-0.2431-0.037-0.375-0.062-32.41-11.84-109.51-43.993-185-75.873-0.0716-2.5956-0.18189-5.2042-0.375-7.8221 0.29191-6.6664 0.16906-13.399-0.28125-20.056 88.95-32.057 191.92-68.859 231.25-80.817 0.1333-0.018 0.2736-0.045 0.4062-0.062 0.4479 1.6005 0.9312 3.229 1.5 4.8182 13.013 36.356 53.001 55.236 89.313 42.208 36.311-13.029 55.201-53.065 42.187-89.421-6.4571-18.039-19.536-31.744-35.531-39.423 7.4885-16.105 8.8652-35.082 2.4062-53.127-10.166-28.403-36.805-46.142-65.281-46.338-7.9734-0.054-16.057 1.2487-24 4.0988-36.312 13.029-55.201 53.066-42.188 89.421 0.6548 1.8293 1.3688 3.6109 2.1563 5.3503-41.965 15.759-121.53 44.607-197.91 72.087 1.2483-9.0161 2.1562-15.926 2.1562-15.926s5.6476-14.82 11.969-25.249l-0.53125 0.094c0.017-0.025-0.017-0.068 0-0.094l-51.312 8.1663 59.188-19.18s13.123-3.8059 18.344-6.2889c10.126-2.9145 20.779-5.3465 27.188-12.484 8.6201-9.5997 11.9-21.918 14.375-34.604 3.4582-10.232 6.0268-22.008 7.0313-34.698 0.8106-4.1761 1.5375-8.8616 2.2187-13.735v-2.4093c4.5943-34.604 6.3901-83.502 9.875-121.27 26.774-49.611 41.969-106.34 41.969-166.61 0-194.68-158.49-352.49-354.03-352.49z" style="fill:#000000" inkscape:connector-curvature="0"/>
    </clipPath>
    <filter id="filter12762" inkscape:collect="always" color-interpolation-filters="sRGB">
      <feGaussianBlur id="feGaussianBlur12764" stdDeviation="5.1902194" inkscape:collect="always"/>
    </filter>
    <filter id="filter13057" inkscape:collect="always" color-interpolation-filters="sRGB">
      <feGaussianBlur id="feGaussianBlur13059" stdDeviation="9.7934955" inkscape:collect="always"/>
    </filter>
    <filter id="filter4716" height="1.8231" width="1.8256" color-interpolation-filters="sRGB" y="-.41154" x="-.41281" inkscape:collect="always">
      <feGaussianBlur id="feGaussianBlur4718" stdDeviation="15.720002" inkscape:collect="always"/>
    </filter>
    <filter id="filter4720" height="1.9395" width="1.518" color-interpolation-filters="sRGB" y="-.46973" x="-.25902" inkscape:collect="always">
      <feGaussianBlur id="feGaussianBlur4722" stdDeviation="6.515081" inkscape:collect="always"/>
    </filter>
    <filter id="filter5450" height="1.2237" width="1.1913" color-interpolation-filters="sRGB" y="-.11185" x="-.095646" inkscape:collect="always">
      <feGaussianBlur id="feGaussianBlur5452" stdDeviation="7.3261031" inkscape:collect="always"/>
    </filter>
    <filter id="filter5454" height="1.2237" width="1.1913" color-interpolation-filters="sRGB" y="-.11185" x="-.095646" inkscape:collect="always">
      <feGaussianBlur id="feGaussianBlur5456" stdDeviation="7.3261031" inkscape:collect="always"/>
    </filter>
    <radialGradient id="radialGradient5458" gradientUnits="userSpaceOnUse" cy="1400.3" cx="705.73" gradientTransform="matrix(.90820 0 0 .43226 64.787 795.01)" r="576.03" inkscape:collect="always">
      <stop id="stop13679" style="stop-color:#1a1a1a" offset="0"/>
      <stop id="stop13681" style="stop-color:#000000" offset="1"/>
    </radialGradient>
    <radialGradient id="radialGradient5460" fx="271.55" fy="1348.2" gradientUnits="userSpaceOnUse" cy="1176.6" cx="200.48" gradientTransform="matrix(.40172 -.0033820 .0070683 .84207 410.2 -517.47)" r="613.65" inkscape:collect="always">
      <stop id="stop11007" style="stop-color:#666666" offset="0"/>
      <stop id="stop11009" style="stop-color:#000000" offset="1"/>
    </radialGradient>
    <radialGradient id="radialGradient5462" gradientUnits="userSpaceOnUse" cy="360.37" cx="2770.3" gradientTransform="matrix(1.0353 2.4883e-7 -1.3063e-7 .58030 -1283.7 -518.95)" r="418.34" inkscape:collect="always">
      <stop id="stop12666" style="stop-color:#ffffff" offset="0"/>
      <stop id="stop12668" style="stop-color:#000000" offset="1"/>
    </radialGradient>
    <radialGradient id="radialGradient5464" gradientUnits="userSpaceOnUse" cy="415.92" cx="2770.3" gradientTransform="matrix(.60777 0 0 .41816 -99.42 -483.75)" r="418.34" inkscape:collect="always">
      <stop id="stop12658" style="stop-color:#ffffff" offset="0"/>
      <stop id="stop12660" style="stop-color:#000000" offset="1"/>
    </radialGradient>
    <linearGradient id="linearGradient5466" y2="384.43" xlink:href="#linearGradient12690" gradientUnits="userSpaceOnUse" x2="2763.8" gradientTransform="translate(4.8352)" y1="277.85" x1="2763.8" inkscape:collect="always"/>
    <radialGradient id="radialGradient5468" xlink:href="#linearGradient12778" gradientUnits="userSpaceOnUse" cy="287.23" cx="2567.2" gradientTransform="matrix(1.0815 0 0 .66514 -1334.5 36.83)" r="70.194" inkscape:collect="always"/>
  </defs>
  <g id="g5355" transform="matrix(.53914 0 0 .53914 -14.571 -14.963)">
    <g id="g13671" transform="matrix(.80232 0 0 .80350 -66.222 -364.04)">
      <path id="path8413" d="m232.21 1126.1c-28.477 0.1947-55.112 17.938-65.279 46.306-6.459 18.023-5.0633 36.966 2.4252 53.052-15.995 7.6689-29.087 21.367-35.544 39.384-13.013 36.311 5.877 76.29 42.189 89.303s76.29-5.8518 89.303-42.163c0.56888-1.5874 1.0678-3.2013 1.5158-4.7999 0.13267 0.017 0.27098 0.032 0.40421 0.05 44.544 13.526 171.83 59.238 266.52 93.396-85.614 36.235-183.32 77.227-220.92 90.945-0.13201 0.025-0.24741 0.052-0.37894 0.076-0.53526-1.5714-1.1383-3.1452-1.7936-4.6988-14.992-35.54-55.936-52.204-91.476-37.212s-52.204 55.961-37.212 91.501c7.4388 17.635 21.274 30.586 37.667 37.363-6.5919 16.474-6.9358 35.487 0.50525 53.127 14.992 35.54 55.936 52.178 91.476 37.186s52.204-55.936 37.212-91.476c-0.75435-1.7882-1.5686-3.5381-2.4505-5.2293 76.062-33.412 280.23-119.52 354.23-150.29l-32.917-78.036c-4.849 2.0311-12.37 5.2217-19.2 8.1092-81.729-28.892-277.23-98.99-352.24-127.12 0.78751-1.7372 1.5178-3.5287 2.1726-5.3557 13.013-36.311-5.877-76.29-42.189-89.303-7.9432-2.8466-16.051-4.1723-24.025-4.1178zm947.04 0c-7.9735-0.054-16.082 1.2711-24.025 4.1177-36.312 13.013-55.202 52.992-42.189 89.303 0.6549 1.827 1.3853 3.6185 2.1727 5.3557-75.004 28.132-270.51 98.229-352.24 127.12-6.8298-2.8876-14.351-6.0781-19.2-8.1093l-32.917 78.036c74.005 30.763 278.17 116.88 354.23 150.29-0.8819 1.6912-1.6962 3.4412-2.4505 5.2294-14.992 35.54 1.6715 76.484 37.212 91.476s76.484-1.6462 91.476-37.186c7.4411-17.64 7.0973-36.654 0.5053-53.127 16.393-6.7769 30.228-19.728 37.666-37.363 14.992-35.54-1.6714-76.509-37.212-91.501-35.54-14.992-76.484 1.6713-91.476 37.212-0.6554 1.5536-1.2584 3.1273-1.7937 4.6988-0.1315-0.024-0.2469-0.051-0.3788-0.076-37.597-13.718-135.31-54.71-220.92-90.945 94.693-34.157 221.98-79.87 266.52-93.396 0.1332-0.018 0.2715-0.033 0.4042-0.05 0.4479 1.5986 0.9469 3.2125 1.5158 4.7999 13.013 36.312 52.992 55.176 89.303 42.163 36.312-13.013 55.202-52.992 42.188-89.303-6.4571-18.018-19.55-31.716-35.544-39.384 7.4885-16.086 8.8841-35.029 2.4252-53.052-10.166-28.368-36.802-46.112-65.279-46.306z" style="fill:url(#radialGradient5458)" inkscape:connector-curvature="0"/>
      <path id="path11642" d="m255.16 1138.8c-27.096 0.1886-52.42 17.33-62.094 44.781-4.2582 12.083-4.9258 24.587-2.5625 36.312 0.62784-3.1164 1.477-6.2321 2.5625-9.3125 9.6738-27.451 34.997-44.593 62.094-44.781 7.587-0.053 15.317 1.183 22.875 3.9376 22.675 8.2636 38.217 27.792 42.719 50.156 6.5478-32.424-11.19-65.666-42.719-77.156-7.5582-2.7546-15.288-3.9901-22.875-3.9376zm901.16 0c-7.587-0.053-15.286 1.183-22.844 3.9376-31.528 11.49-49.266 44.733-42.719 77.156 4.5014-22.364 20.044-41.893 42.719-50.156 7.558-2.7546 15.257-3.9898 22.844-3.9376 27.096 0.1886 52.42 17.33 62.094 44.781 1.0959 3.1091 1.9314 6.2608 2.5626 9.4063 2.3767-11.752 1.7071-24.291-2.5626-36.406-9.6736-27.451-34.997-44.593-62.094-44.781zm-834.3 97.8c-0.30555 6.5342-1.5295 13.116-3.8125 19.594-0.62306 1.7679-1.3444 3.5064-2.0938 5.1876 38.924 14.846 111.85 41.71 182.81 67.656-1.5864-9.9654-3.0535-20.021-4.25-28.562-66.34-24.3-133.45-49.1-172.65-63.9zm767.5 0c-39.187 14.868-106.31 39.578-172.66 63.844-1.203 8.5489-2.6895 18.614-4.2812 28.594 70.966-25.946 143.89-52.81 182.81-67.656-0.7494-1.6812-1.4395-3.4197-2.0625-5.1876-2.283-6.4782-3.5068-13.06-3.8125-19.594zm-900.16 1.6875c-12.446 7.7545-22.504 19.687-27.812 34.75-4.2565 12.078-4.9204 24.567-2.5625 36.281 0.62787-3.1089 1.479-6.2067 2.5625-9.2812 6.1441-17.435 18.624-30.673 33.844-38.094-3.3839-7.3919-5.4391-15.406-6.0312-23.656zm1032.8 0c-0.5851 8.25-2.6474 16.264-6.0312 23.656 15.22 7.4211 27.668 20.659 33.812 38.094 1.0835 3.0745 1.9346 6.1723 2.5625 9.2812 2.3578-11.714 1.6941-24.203-2.5625-36.281-5.308-15.063-15.341-26.996-27.781-34.75zm-724.34 185.16c-68.495 29.343-136.55 58.096-165.94 69-0.12561 0.024-0.24985 0.039-0.375 0.063-0.50932-1.5207-1.0639-3.0279-1.6875-4.5313-14.265-34.391-53.213-50.507-87.031-36-29.708 12.744-45.537 44.874-39.281 75.812 4.2496-21.098 18.297-39.811 39.281-48.812 33.818-14.507 72.766 1.6089 87.031 36 0.62362 1.5034 1.1782 3.0104 1.6875 4.5313 0.12515-0.022 0.24939-0.01 0.375-0.031 30.005-11.134 100.28-40.896 170.22-70.875-0.16563-0.523-0.37026-1.0813-0.53125-1.5937-2.4294-7.7348-3.5045-15.595-3.75-23.563zm415.84 0c-0.25458 7.9678-1.3206 15.828-3.75 23.563-0.1603 0.5102-0.33512 1.073-0.5 1.5937 69.934 29.975 140.22 59.742 170.22 70.875 0.1256 0.024 0.2188 0.041 0.3438 0.062 0.5093-1.5208 1.064-3.0591 1.6874-4.5625 14.265-34.391 53.245-50.507 87.063-36 20.976 8.9983 35.035 27.693 39.281 48.781 6.2426-30.928-9.5849-63.042-39.281-75.781-33.818-14.507-72.797 1.6088-87.063 36-0.6234 1.5034-1.1781 3.0105-1.6874 4.5313-0.125-0.023-0.2182-0.038-0.3438-0.063-29.387-10.905-97.471-39.657-165.97-69zm-542.69 170.88c-2.3873 1.0604-5.0138 2.1854-7.1875 3.1563 0.83917 1.6365 1.6572 3.3636 2.375 5.0937 1.7338 4.18 2.9782 8.439 3.8438 12.719 1.3758-6.8276 1.7505-13.88 0.96875-20.969zm669.56 0c-0.7817 7.0892-0.4071 14.141 0.9688 20.969 0.8655-4.2797 2.1101-8.5388 3.8438-12.719 0.7176-1.7301 1.5045-3.4572 2.3437-5.0937-2.1661-0.9675-4.7781-2.1001-7.1563-3.1563zm-802.09 7.125c-0.0212 4.6024 0.41102 9.2272 1.3438 13.844 0.79627-3.9667 1.9328-7.8488 3.4062-11.594-1.6153-0.679-3.1912-1.444-4.75-2.25zm934.59 0c-1.5588 0.806-3.1347 1.571-4.75 2.25 1.4817 3.7652 2.6383 7.6671 3.4376 11.656 0.9376-4.6353 1.3378-9.2849 1.3124-13.906z" style="opacity:.78365;filter:url(#filter12399);fill:#ffffff" inkscape:connector-curvature="0" clip-path="url(#clipPath12407)"/>
    </g>
    <g id="g5273">
      <path id="path8415" d="m500 38.594c-156.88 0-284.06 126.64-284.06 282.88 0 48.363 12.205 93.892 33.686 133.71 2.7989 30.097 4.3174 69.008 7.9453 96.743v2.517c0.5465 3.9115 1.113 7.6706 1.7634 11.022 0.8059 10.185 2.8601 19.638 5.6347 27.85 1.9854 10.181 4.6168 20.064 11.533 27.768 5.1418 5.7278 13.684 7.6681 21.809 10.007 4.1891 1.9926 14.735 5.0544 14.735 5.0544l47.469 15.386-41.166-6.5564c0.0129 0.0216-0.0129 0.061 0 0.0811l-0.40537-0.0811c5.0716 8.3698 9.587 20.278 9.587 20.278s3.6882 28.572 7.2359 48.798c0.14068 1.2085 0.27035 2.4187 0.42565 3.6132 0.51613 3.9654 0.7012 7.9396 0.66886 11.956-2.7726 11.956-3.9225 24.948-3.3646 37.694-0.78637 10.665-0.49667 21.101 2.6957 31.28 8.401 26.787 24.668 71.623 48.401 88.806 3.3707 2.4405 6.7848 4.7021 10.438 6.7391 6.2347 4.0783 12.699 7.422 19.113 9.8448 19.162 6.4441 34.355 10.171 50.753 12.2 3.1483 0.38938 6.3298 0.72404 9.6073 0.99457 0.14087 0.0111 0.2844-0.0111 0.4256 0 3.2631 0.26412 6.627 0.52886 10.094 0.69014 3.7203 0.17692 7.576 0.25084 11.614 0.32477 1.0817-0.0216 2.1398-0.0531 3.2024-0.0812h0.34461c1.2022 0.0322 2.3726 0.0595 3.6078 0.0812 11.554-0.22234 21.658-0.80237 31.315-2.0095 16.398-2.0281 31.611-5.7554 50.773-12.2 6.4145-2.4228 12.858-5.7666 19.093-9.8448 3.6536-2.037 7.0677-4.2986 10.438-6.7391 23.734-17.183 40-62.02 48.401-88.806 3.1924-10.179 3.4822-20.615 2.6957-31.28 0.55798-12.746-0.59197-25.738-3.3645-37.694-0.0323-4.0162 0.1527-7.9904 0.66884-11.956 0.1551-1.1945 0.28506-2.4047 0.42562-3.6132 3.5478-20.226 7.2359-48.798 7.2359-48.798s4.5358-11.908 9.6073-20.278l-0.42562 0.0811c0.0129-0.0209-0.0129-0.061 0-0.0811l-41.166 6.5564 47.489-15.386s10.526-3.0618 14.715-5.0544c8.1246-2.3391 16.667-4.2794 21.809-10.007 6.916-7.7041 9.5475-17.587 11.533-27.768 2.7746-8.2114 4.8288-17.665 5.6347-27.85 0.65043-3.3515 1.2371-7.1106 1.7836-11.022v-1.9284c3.6861-27.771 5.129-67.02 7.925-97.332 21.482-39.815 33.686-85.344 33.686-133.71 0-156.24-127.18-282.88-284.06-282.88z" style="fill:url(#radialGradient5460)" inkscape:connector-curvature="0"/>
      <path id="path12871" style="filter:url(#filter13057);fill-rule:evenodd;fill:#000000" d="m536.12 1275.5v7.4375c3.263 1.1701 6.5436 2.3457 9.8125 3.5312 0.0233 0.1715 9.6312 78.838 14.219 99.758 4.7848 21.82 5.7211 41.144 19.812 59.656 15.947 16.405 36.541 29.49 60.406 38.125 3.5927 1.1615 7.3838 2.2429 11.188 3.2188v0.094c1.3098 0.3339 2.5107 0.7166 3.8438 1.0312 0.53314 0.126 1.1198 0.2529 1.6562 0.375 1.8777 0.4275 3.683 0.8141 5.5938 1.1875 4.2932 0.8441 8.8135 1.4391 13.281 2.0313 2.498 0.3312 4.9842 0.6884 7.5312 0.9374 0.43624 0.045 0.75063 0.1164 1.1875 0.1563 0.13265 0.012 0.2427-0.012 0.375 0 5.1896 0.4673 15.917 0.6603 20.719 0.75 4.8013-0.09 15.529-0.2829 20.719-0.75 0.1323-0.012 0.21117 0.012 0.34375 0 0.43687-0.04 0.78244-0.1116 1.2188-0.1563 2.547-0.249 5.002-0.6062 7.5-0.9374 4.4678-0.5922 9.0193-1.1872 13.312-2.0313 1.9108-0.3734 3.6849-0.76 5.5625-1.1875 0.53647-0.1221 1.1232-0.249 1.6562-0.375 1.333-0.3146 2.534-0.6973 3.8438-1.0312v-0.094c3.8038-0.9759 7.5948-2.0573 11.188-3.2188 23.866-8.6346 44.491-21.72 60.438-38.125 14.091-18.513 14.996-37.836 19.781-59.656 4.5875-20.92 14.195-99.586 14.219-99.758 3.2781-1.1888 6.5717-2.3579 9.8438-3.5312v-7.4375c-12.199 3.2956-24.757 7.251-35.688 11.875-24.289 10.276-36.594 81.133-36.594 81.133-19.472 9.6323-54.871 17.531-97.062 17.531h-0.28125-0.28125c-42.192 0-77.622-7.899-97.094-17.531 0 0-12.273-70.857-36.562-81.133-10.93-4.624-23.489-8.5794-35.688-11.875zm21.562 15.469s5.639 2.7398 7.25 3.5313c25.231 12.398 23.757 52.29 33.188 87.133 0.47099 1.74 2.843 2.1524 4.6562 2.9376v62.687c-3.9948-3.1352-7.6441-6.3922-10.906-9.875-10.14-13.728-15.428-32.444-19.531-51.156-5.6187-25.623-14.656-95.258-14.656-95.258zm296.12 0s-9.0687 69.635-14.688 95.258c-4.1035 18.712-9.3916 37.428-19.531 51.156-3.2622 3.4828-6.9114 6.7398-10.906 9.875v-62.687c1.8132-0.7852 4.2166-1.1976 4.6875-2.9376 9.4304-34.843 7.9567-74.735 33.188-87.133 1.611-0.7915 7.25-3.5313 7.25-3.5313zm-239.84 97.945c4.143 1.3783 8.5573 2.6972 13.219 3.875v25.406c-4.6936-2.201-9.0737-4.6525-13.219-7.2188zm183.53 0v22.062c-4.1451 2.5663-8.4939 5.0178-13.188 7.2188v-25.406c4.6614-1.1778 9.0445-2.4967 13.188-3.875zm-159.06 6.375c4.2119 0.8473 8.6199 1.536 13.125 2.2187v29.625c-4.5178-1.2776-8.912-2.5806-13.125-4.1562zm134.59 0v27.688c-4.213 1.5756-8.6071 2.8786-13.125 4.1562v-29.625c4.5051-0.6827 8.9131-1.3714 13.125-2.2187zm-110.38 3.7813c4.2705 0.4885 8.8223 0.9442 13.281 1.2812v32.031c-4.4817-0.6458-8.9959-1.4532-13.281-2.375zm86.188 0v30.937c-4.2854 0.9218-8.8308 1.7292-13.312 2.375v-32.031c4.4591-0.337 9.042-0.7927 13.312-1.2812zm-61.812 1.8437c4.3628 0.1951 8.7287 0.4239 13.219 0.4687v33.031c-4.4675-0.1145-8.8815-0.4289-13.219-0.8125zm37.406 0v32.688c-4.3373 0.3836-8.72 0.6982-13.188 0.8125v-33.031c4.4901-0.045 8.8246-0.2732 13.188-0.4687zm-110.47 26.875c4.2016 2.2574 8.5373 4.4371 13.219 6.375v28.062c-4.6503-2.1809-9.0631-4.6791-13.219-7.2188zm183.53 0v27.219c-4.1557 2.5397-8.5372 5.0379-13.188 7.2188v-28.062c4.6814-1.9379 8.986-4.1176 13.188-6.375zm-159.06 10.531c4.2378 1.4123 8.6095 2.7293 13.125 3.875v28.969c-4.5282-1.2938-8.8855-2.7478-13.125-4.3437zm134.59 0v28.5c-4.2395 1.5959-8.5969 3.0499-13.125 4.3437v-28.969c4.5155-1.1457 8.8872-2.4627 13.125-3.875zm-110.38 6.4374c4.2806 0.8307 8.8192 1.4481 13.281 2.0313v29.562c-4.4471-0.6519-9.0192-1.3849-13.281-2.3125zm86.188 0v29.281c-4.2621 0.9276-8.8654 1.6606-13.312 2.3125v-29.562c4.4621-0.5832 9.0319-1.2006 13.312-2.0313zm-61.812 3.1563c4.349 0.3487 8.7463 0.6151 13.219 0.7187v29.844c-4.4778-0.1177-8.8677-0.3581-13.219-0.75zm37.406 0v29.812c-4.3511 0.3919-8.7097 0.6324-13.188 0.75v-29.844c4.4723-0.1037 8.8384-0.37 13.188-0.7187z" sodipodi:nodetypes="cccscccccccccccccccccccccccscccscscscscccccccsccscccscccccccccccccccccccccccccccccccccccccccccccccccccccccccccccccccccccccccccccccccccc" inkscape:connector-curvature="0" transform="matrix(.80232 0 0 .80350 -66.227 -364.04)"/>
      <path id="path13061" d="m496.3 588.29c-19.987 9.7457-27.862 13.028-38.907 23.812-3.9971 4.1624-11.49 13.818-13.531 20.344-2.0387 6.5245-3.647 11.179-3.6408 16.193 0.0242 16.989 8.423 27.701 17.633 27.329 11.307 1.3198 30.122 0.79538 34.642-16.608 2.6457-10.187 3.8038-71.071 3.8038-71.071zm7.3631 0s1.1582 60.884 3.8038 71.071c4.5197 17.403 23.334 17.927 34.642 16.608 9.2103 0.37129 17.636-10.34 17.66-27.329 0.006-5.0136-1.6021-9.668-3.6408-16.193-2.0408-6.5258-9.5608-16.182-13.558-20.344-11.045-10.785-18.92-14.067-38.907-23.812z" style="opacity:.51442;fill-rule:evenodd;fill:#000000" inkscape:connector-curvature="0"/>
      <path id="path8417" d="m294.51 630s30.079 10.197 58.758 20.511c0.0215 0.15621 8.8356 60.727 13.048 79.775 4.3936 19.867 5.2437 37.448 18.183 54.304 14.643 14.937 33.561 26.856 55.475 34.718 3.299 1.0575 6.7773 2.0536 10.27 2.9422v0.0839c1.2027 0.30412 2.3116 0.6383 3.5356 0.92467 0.48956 0.11481 1.0226 0.22506 1.5152 0.33627 1.7242 0.38922 3.3805 0.75288 5.135 1.0928 3.9422 0.76863 8.1037 1.3101 12.206 1.8494 2.2938 0.30156 4.564 0.61396 6.9029 0.84062 0.40056 0.041 0.69315 0.132 1.0943 0.16823 0.12183 0.0111 0.21528-0.0111 0.33677 0 4.7653 0.42545 14.616 0.59081 19.025 0.67245 4.4088-0.0817 14.26-0.24708 19.025-0.67245 0.12146-0.0111 0.21494 0.0111 0.33669 0 0.40114-0.0362 0.69373-0.12756 1.0944-0.16823 2.3388-0.22666 4.609-0.53906 6.9028-0.84062 4.1025-0.53923 8.264-1.0807 12.206-1.8494 1.7546-0.33995 3.411-0.70361 5.135-1.0928 0.49261-0.11129 1.0258-0.22152 1.5152-0.33627 1.224-0.28637 2.333-0.62055 3.5356-0.92467v-0.0839c3.4928-0.88859 6.9711-1.8847 10.27-2.9422 21.914-7.862 40.832-19.781 55.475-34.718 12.939-16.856 13.789-34.437 18.183-54.304 4.2124-19.048 13.026-79.619 13.048-79.775 28.679-10.314 58.758-20.511 58.758-20.511s-49.395 7.4658-82.497 21.352c-22.304 9.3562-33.588 62.794-33.588 62.794-17.88 8.7705-50.405 15.972-89.148 15.972h-0.25237-0.25244c-38.742 0-71.268-7.2014-89.148-15.972 0 0-11.284-53.438-33.588-62.794-33.102-13.886-82.497-21.352-82.497-21.352zm69.533 24.63s5.1711 2.4736 6.6503 3.1943c23.168 11.289 21.814 36.533 30.474 68.259 0.43247 1.5842 2.6282 1.9751 4.2932 2.69v57.078c-3.6682-2.8548-7.0221-5.8235-10.018-8.9947-9.3107-12.5-14.163-29.532-17.931-46.57-5.1594-23.33-13.469-75.656-13.469-75.656zm271.9 0s-8.3095 52.326-13.469 75.656c-3.768 17.038-8.6198 34.07-17.931 46.57-2.9955 3.1712-6.3493 6.14-10.018 8.9947v-57.078c1.665-0.71487 3.8608-1.1057 4.2932-2.69 8.6594-31.726 7.3054-56.97 30.474-68.259 1.4792-0.72073 6.6503-3.1943 6.6503-3.1943zm-220.21 78.09c3.8043 1.2549 7.8418 2.4582 12.122 3.5307v23.117c-4.3099-2.0039-8.3159-4.2202-12.122-6.5569zm168.53 0v20.091c-3.8062 2.3368-7.8122 4.553-12.122 6.5569v-23.117c4.2803-1.0725 8.3178-2.2758 12.122-3.5307zm-146.05 5.8002c3.8676 0.77144 7.901 1.3958 12.038 2.0175v26.984c-4.1485-1.1633-8.1693-2.3482-12.038-3.7828zm123.58 0v25.219c-3.8686 1.4346-7.8893 2.6194-12.038 3.7828v-26.984c4.1368-0.62169 8.1703-1.2461 12.038-2.0175zm-101.35 3.4466c3.9213 0.44489 8.1118 0.86995 12.206 1.1768v29.17c-4.1153-0.58792-8.2712-1.3464-12.206-2.1856zm79.13 0v28.161c-3.935 0.83918-8.091 1.5977-12.206 2.1856v-29.17c4.0945-0.30686 8.2849-0.73192 12.206-1.1768zm-56.738 1.6812c4.0062 0.17765 7.9991 0.37949 12.122 0.42031v30.094c-4.1023-0.10427-8.1394-0.4073-12.122-0.75658zm34.346 0v29.758c-3.9827 0.34928-8.0198 0.65252-12.122 0.75658v-30.094c4.123-0.041 8.1159-0.24234 12.122-0.42031zm-101.45 24.46c3.8581 2.0554 7.8234 4.0359 12.122 5.8003v25.555c-4.2702-1.9857-8.3062-4.2444-12.122-6.5568zm168.53 0v24.798c-3.8159 2.3124-7.852 4.5711-12.122 6.5568v-25.555c4.2986-1.7644 8.264-3.7449 12.122-5.8003zm-146.05 9.5831c3.8913 1.286 7.8915 2.4874 12.038 3.5306v26.396c-4.158-1.178-8.1449-2.4979-12.038-3.951zm123.58 0v25.975c-3.8929 1.4531-7.8799 2.773-12.038 3.951v-26.396c4.1463-1.0432 8.1465-2.2446 12.038-3.5306zm-101.35 5.8844c3.9307 0.75641 8.109 1.3184 12.206 1.8493v26.9c-4.0836-0.59355-8.2926-1.257-12.206-2.1016zm79.13 0v26.648c-3.9136 0.84455-8.1227 1.508-12.206 2.1016v-26.9c4.0973-0.53095 8.2756-1.0929 12.206-1.8493zm-56.738 2.858c3.9935 0.31754 8.0153 0.57812 12.122 0.67253v27.152c-4.1117-0.10722-8.1267-0.31569-12.122-0.67253zm34.346 0v27.152c-3.9953 0.35684-8.0103 0.5655-12.122 0.67253v-27.152c4.1067-0.0945 8.1285-0.35499 12.122-0.67253z" sodipodi:nodetypes="ccscccccccccccccccccccccccsccscscscscccsccccsccscccssccccccccccccccccccccccccccccccccccccccccccccccccccccccccccccccccccccccccccccccccc" style="fill-rule:evenodd;fill:#ffffff" inkscape:connector-curvature="0"/>
      <path id="path13572" style="opacity:.78365;filter:url(#filter12399);fill:#ffffff" d="m705.75 533.91c-186.06 0-336.91 152.53-336.91 340.69 0 4.4232 0.11567 8.8364 0.28125 13.219 7.1641-181.76 155.14-326.88 336.62-326.88 181.49 0 329.43 145.12 336.59 326.88 0.1651-4.3823 0.2812-8.7956 0.2812-13.219 0-188.16-150.81-340.69-336.88-340.69z" clip-path="url(#clipPath12407)" inkscape:connector-curvature="0" transform="matrix(.80232 0 0 .80350 -66.222 -364.04)"/>
      <g id="g5197" transform="translate(-1084.3 783.84)">
        <path id="path4065" style="stroke:url(#radialGradient5464);stroke-width:1.6877;fill:url(#radialGradient5462)" inkscape:connector-curvature="0" d="m1483.1-463.1c-51.324 0.11789-112.5 7.1727-139.99 36.769-36.997 39.834-50.062 123.36-14.36 164.42 44.649 51.347 149.1 48.501 201.16 5.1224 25.592-21.324 34.627-70.99 37.277-115.64 3.537-8.3011 9.72-13.812 16.846-13.812 0.077 0 0.1514 0.0197 0.2279 0.0209 0.077-0.001 0.1512-0.0209 0.228-0.0209 7.126 0 13.309 5.5108 16.846 13.812 2.6497 44.648 11.685 94.315 37.277 115.64 52.062 43.379 156.51 46.225 201.16-5.1224 35.703-41.059 22.638-124.58-14.359-164.42-27.489-29.597-88.665-36.652-139.99-36.769-45.286-0.10376-82.821 5.2054-82.821 5.2054s0.0001 0.10303 0 0.10358c-5.9605 0.54818-13.085 0.99545-18.193 0.99545-0.046 0-0.099 0.00009-0.1451 0-0.046 0.00009-0.099 0-0.145 0-5.1078 0-12.232-0.44727-18.193-0.99545v-0.10358s-37.535-5.3092-82.821-5.2054zm84.085 21.962c5.6522 0.4974 12.374 0.9125 16.929 0.9125 0.044 0 0.1008 0.00007 0.1449 0 0.044 0.00007 0.1013 0 0.1452 0 4.5546 0 11.277-0.4151 16.929-0.9125-0.6344 11.379-1.2076 27.63-0.891 46.102-4.6463-4.2402-10.086-6.7607-15.955-6.7607-0.077 0-0.1512-0.00067-0.2279 0-0.077-0.00067-0.1511 0-0.2279 0-5.8694 0-11.309 2.5206-15.955 6.7607 0.3166-18.472-0.2566-34.722-0.891-46.102z"/>
        <g id="g5123">
          <g id="g5045" transform="translate(2.8086)">
            <g id="g4735" transform="translate(20.627 -330.8)">
              <path id="path4071" style="fill:#000000" inkscape:connector-curvature="0" d="m1467.3-117.27c-47.372-0.54722-107.24 4.7504-133.3 31.835-33.128 34.427-44.836 106.56-12.929 141.98 39.903 44.303 133.32 41.775 179.93 4.2749 46.163-37.143 32.366-173.73 32.366-173.73s-29.225-3.9403-66.07-4.3659z"/>
              <g id="g4669">
                <path id="path4077" style="fill:#ff0066" inkscape:connector-curvature="0" d="m1407.1-114.06c-5.4108 0.72926-10.729 1.6189-15.938 2.6562 0.1251 5.7383 0.7357 11.332 1.7188 16.719 1.1397 6.2452 2.7868 12.227 4.8124 17.812 2.6997 7.447 6.0075 14.231 9.4063 20.188 3.3989 5.9568 6.9042 11.076 9.9687 15.281 2.3316 3.1993 4.4212 5.8527 6.0626 7.9375-1.5172-2.5409-3.4102-5.932-5.375-10.062-2.3337-4.9058-4.7898-10.843-6.9063-17.594-2.1166-6.7504-3.862-14.312-4.7813-22.375-0.6893-6.0516-0.9081-12.376-0.4687-18.844 0.2628-3.8686 0.7615-7.7857 1.5-11.719z"/>
                <path id="path4079" style="fill:#ffbf00" inkscape:connector-curvature="0" d="m1430.1-116.34c-5.5959 0.37194-11.194 0.89864-16.75 1.5312-0.9874 4.5778-1.6599 9.1369-2.0313 13.625-0.5236 6.3259-0.4725 12.52 0.031 18.438 0.6706 7.8885 2.1102 15.277 3.8437 21.906 1.7336 6.6291 3.7898 12.492 5.6563 17.344 1.4327 3.7243 2.7337 6.835 3.7812 9.2812-0.8086-2.8523-1.7331-6.597-2.5625-11.125-0.9781-5.3397-1.8052-11.747-2.0937-18.812-0.2887-7.0655-0.054-14.819 1.1562-22.844 0.9084-6.0229 2.3932-12.178 4.5-18.312 1.2724-3.7049 2.7711-7.3871 4.5312-11.031-0.021 0.001-0.042-0.001-0.062 0z"/>
                <path id="path4081" style="fill:#00ccff" inkscape:connector-curvature="0" d="m1385.2-110.16c-5.5883 1.2787-10.983 2.7814-16.125 4.5 0.2762 1.218 0.5838 2.4371 0.9063 3.6562 1.7148 6.4825 4.0247 12.636 6.75 18.375 2.7254 5.7389 5.8718 11.064 9.2813 15.938 4.5449 6.498 9.5112 12.184 14.344 17.062 4.8324 4.8785 9.5396 8.9459 13.594 12.219 3.0933 2.4971 5.7758 4.5319 7.9063 6.125-2.1285-2.0649-4.8026-4.8526-7.7813-8.3438-3.5301-4.1377-7.4808-9.2434-11.281-15.219-3.8003-5.9753-7.4523-12.823-10.438-20.375-2.2399-5.6679-4.0858-11.733-5.3437-18.094-1.0115-5.1141-1.6166-10.408-1.8126-15.844z"/>
                <path id="path4083" style="fill:#88aa00" inkscape:connector-curvature="0" d="m1457.4-117.31c-6.6416 0.0433-13.441 0.25438-20.312 0.59375-2.4623 4.6151-4.555 9.2916-6.25 14-2.1511 5.9755-3.6975 11.967-4.75 17.812-1.4041 7.7925-1.9502 15.307-2 22.156-0.05 6.8497 0.3967 13.052 0.9375 18.219 0.4157 3.9706 0.8743 7.3036 1.25 9.9375-0.039-2.9643 0.029-6.8462 0.4063-11.438 0.4441-5.4096 1.2846-11.788 2.8437-18.688 1.559-6.899 3.8382-14.31 7.0937-21.75 2.444-5.5838 5.463-11.148 9.0938-16.531 3.3609-4.9827 7.2581-9.8076 11.688-14.312z"/>
                <path id="path4085" style="fill:#ffbf00" inkscape:connector-curvature="0" d="m1363.3-103.62c-5.8386 2.2454-11.261 4.8416-16.156 7.8125 1.5956 3.7091 3.3908 7.3818 5.4687 11 3.3426 5.82 7.1561 11.19 11.281 16.031 4.1253 4.8414 8.564 9.1704 13.125 13 6.0802 5.1061 12.344 9.3447 18.281 12.812 5.9367 3.4678 11.545 6.164 16.312 8.2812 3.6601 1.6255 6.8021 2.9134 9.2813 3.9062-2.5992-1.4481-5.9439-3.4742-9.75-6.0938-4.4862-3.0875-9.5874-7.0195-14.812-11.812-5.2251-4.793-10.558-10.443-15.406-16.969-3.6378-4.8979-6.9741-10.274-9.8438-16.094-2.8697-5.8202-5.2513-12.11-7-18.719-0.2808-1.0612-0.5376-2.0952-0.7812-3.1562z"/>
                <path id="path4087" style="fill:#ff0066" inkscape:connector-curvature="0" d="m1466.1-117.28c-1.124 1.0168-2.221 2.0485-3.3126 3.125-4.7846 4.7188-8.9928 9.7821-12.625 15s-6.7128 10.594-9.25 15.969c-3.3831 7.1654-5.8577 14.303-7.6874 20.906-1.8298 6.6035-2.991 12.683-3.8126 17.812-0.6295 3.9312-1.053 7.2687-1.375 9.9062 0.733-2.8701 1.8212-6.5809 3.375-10.906 1.8361-5.1109 4.3246-11.05 7.625-17.312 3.3006-6.2624 7.42-12.839 12.5-19.188 3.8132-4.7641 8.1552-9.3918 13.063-13.656 4.9072-4.2645 10.38-8.1712 16.344-11.562 6.5588-3.73 13.353-6.5823 20.156-8.7188-9.8716-0.65812-21.403-1.2313-33.844-1.375-0.3791-0.004-0.7756 0.004-1.1562 0z"/>
                <path id="path4089" style="fill:#ff0066" inkscape:connector-curvature="0" d="m1342.1-92.5c-2.9994 2.1693-5.7442 4.5234-8.1875 7.0625-2.0451 2.1253-3.9984 4.3861-5.875 6.7812 3.5774 5.1749 7.6915 10.205 12.375 14.906 4.7425 4.7609 9.8185 8.9484 15.062 12.562 5.244 3.6141 10.661 6.663 16.062 9.1875 7.2012 3.3663 14.332 5.8355 20.969 7.6562 6.6367 1.8207 12.751 2.9951 17.906 3.8125 3.9037 0.6189 7.2697 1.025 9.9063 1.3438-2.8739-0.72924-6.5985-1.8115-10.906-3.3438-5.1364-1.827-11.081-4.2784-17.375-7.5625-6.2938-3.2841-12.901-7.414-19.281-12.469-4.7879-3.7942-9.4328-8.1172-13.719-13-4.2857-4.8828-8.2168-10.317-11.625-16.25-2.0141-3.5064-3.7751-7.0806-5.3125-10.688z"/>
                <path id="path4091" style="fill:#ffbf00" inkscape:connector-curvature="0" d="m1518.3-114.53c-3.4297 0.66236-6.8795 1.4914-10.375 2.5-8.0259 2.317-16.158 5.6211-23.969 10.062-5.8491 3.3258-11.228 7.114-16.094 11.219-4.8658 4.1047-9.2138 8.5241-13.063 13.062-5.1316 6.0499-9.3899 12.28-12.875 18.188-3.4851 5.9072-6.2159 11.475-8.3437 16.219-1.6239 3.6201-2.8798 6.7585-3.875 9.2188 1.4536-2.5803 3.4441-5.8894 6.0625-9.6562 3.103-4.4639 7.058-9.5822 11.875-14.781 4.817-5.1991 10.504-10.489 17.062-15.312 4.9224-3.6198 10.338-6.9571 16.188-9.8125 5.8493-2.8554 12.139-5.2287 18.781-6.9688 8.8698-2.3236 17.773-3.3344 26.313-3.3438 2.9358-0.0036 5.8146 0.12478 8.6562 0.34375-0.5641-11.752-1.3125-19.312-1.3125-19.312s-5.7561-0.7479-15.031-1.625z"/>
                <path id="path4093" style="fill:#88aa00" inkscape:connector-curvature="0" d="m1324.4-73.656c-3.8984 5.6696-7.3285 11.896-10.281 18.5 5.8555 5.4913 12.512 10.579 19.969 14.906 5.8193 3.3773 11.807 6.1095 17.812 8.25 6.0055 2.1404 12.032 3.6714 17.906 4.7188 7.8314 1.3971 15.397 1.9504 22.281 2 6.884 0.04954 13.089-0.36807 18.281-0.90625 3.9634-0.4108 7.3297-0.9087 9.9688-1.2812-2.9721 0.03738-6.8516-0.03346-11.438-0.40625-5.4366-0.44198-11.879-1.2924-18.812-2.8438-6.9336-1.5513-14.366-3.8231-21.844-7.0625-5.6117-2.4319-11.215-5.4185-16.625-9.0312-5.4099-3.6127-10.633-7.834-15.469-12.688-4.4415-4.4582-8.3474-9.2186-11.75-14.156z"/>
                <path id="path4095" style="fill:#00ccff" inkscape:connector-curvature="0" d="m1528.7-88.344c-0.5827 0.0028-1.1639 0.01936-1.75 0.03125-8.3551 0.17118-17.05 1.2528-25.75 3.5312-6.5149 1.7062-12.701 3.9757-18.469 6.6875-5.7676 2.7118-11.102 5.8574-16 9.25-6.5305 4.5223-12.285 9.4728-17.188 14.281-4.903 4.8084-8.9921 9.4973-12.281 13.531-2.5094 3.0777-4.524 5.7551-6.125 7.875 2.0752-2.1179 4.8665-4.7862 8.375-7.75 4.1585-3.5127 9.3074-7.4373 15.313-11.219 6.0051-3.7814 12.879-7.4358 20.469-10.406 5.6963-2.2287 11.795-4.0295 18.188-5.2812 6.3927-1.2517 13.069-1.9361 19.938-1.9062 7.5427 0.03274 14.861 0.93759 21.812 2.4688 0.01-7.6789-0.1414-14.74-0.375-20.938-2.0289-0.09573-4.0771-0.16671-6.1562-0.15625z"/>
                <path id="path4097" style="fill:#ffbf00" inkscape:connector-curvature="0" d="m1311.8-49.562c-2.6746 6.8096-4.7961 13.93-6.375 21.188 1.5131 0.92215 3.0401 1.8507 4.625 2.7188 7.3217 4.0085 15.414 7.3636 24.094 9.7188 6.4993 1.7636 13.017 2.8853 19.375 3.4062 6.3575 0.52093 12.553 0.4387 18.5-0.0625 7.928-0.66738 15.369-2.0875 22.031-3.8125 6.6623-1.725 12.562-3.7367 17.438-5.5938 3.7099-1.4131 6.8011-2.7432 9.25-3.7812-2.8594 0.8005-6.6063 1.7118-11.125 2.5312-5.3664 0.9732-11.774 1.8066-18.875 2.0938-7.1008 0.28711-14.904 0.04714-22.969-1.1562-6.0531-0.90384-12.241-2.3723-18.406-4.4688-6.1653-2.0964-12.317-4.8384-18.25-8.2812-7.2109-4.1844-13.654-9.1196-19.312-14.5z"/>
                <path id="path4099" style="fill:#ff0066" inkscape:connector-curvature="0" d="m1513.4-63.719c-6.7367-0.02972-13.286 0.58468-19.562 1.7188-6.2764 1.1341-12.292 2.7969-17.906 4.8125-7.4843 2.6863-14.295 5.9618-20.281 9.3438-5.9866 3.3819-11.149 6.8568-15.375 9.9062-3.2307 2.331-5.9003 4.3945-8 6.0312 2.5563-1.5122 5.9604-3.3511 10.125-5.3125 4.9304-2.3221 10.903-4.769 17.688-6.875 6.7841-2.106 14.396-3.8666 22.5-4.7812 6.0818-0.68582 12.437-0.87473 18.938-0.4375 6.5005 0.43722 13.124 1.4836 19.75 3.2812 4.5743 1.2409 8.9769 2.8075 13.188 4.5938 0.3868-6.8724 0.6374-13.579 0.7188-19.969-6.9442-1.4373-14.247-2.2792-21.781-2.3125z"/>
                <path id="path4101" style="fill:#ffbf00" inkscape:connector-curvature="0" d="m1491-43.969c-3.0923 0.01216-6.1517 0.15565-9.125 0.40625-7.928 0.66738-15.369 2.0875-22.031 3.8125-6.6623 1.725-12.531 3.7367-17.406 5.5938-3.7098 1.413-6.8323 2.712-9.2813 3.75 2.8595-0.80053 6.6376-1.6805 11.156-2.5 5.3664-0.9732 11.743-1.8066 18.844-2.0938 7.1007-0.28714 14.904-0.04714 22.969 1.1562 6.0531 0.90381 12.272 2.3723 18.438 4.4688 6.1652 2.0964 12.286 4.8384 18.219 8.2812 3.2635 1.8937 6.3628 3.9486 9.3126 6.125 0.8857-6.7425 1.551-13.53 2.0312-20.219-4.5716-1.962-9.3731-3.674-14.375-5.0312-6.4994-1.7636-12.986-2.854-19.344-3.375-3.1787-0.26047-6.3139-0.38716-9.4062-0.375z"/>
                <path id="path4103" style="fill-opacity:.94611;fill:#ff0066" inkscape:connector-curvature="0" d="m1421.5-24.25c-2.5537 1.5095-5.9425 3.3574-10.094 5.3125-4.9303 2.322-10.903 4.8002-17.687 6.9062-6.7843 2.106-14.365 3.8353-22.469 4.75-6.0819 0.68581-12.468 0.90598-18.969 0.46875-6.5005-0.43723-13.123-1.5149-19.75-3.3125-8.849-2.4005-17.069-5.9472-24.469-10.188-1.2986-0.74389-2.5644-1.4967-3.8125-2.2812-1.3402 7.7166-2.045 15.525-2 23.188 3.9511 1.4344 8.0801 2.6981 12.375 3.75 8.1149 1.9863 16.785 3.179 25.781 3.2188 6.7367 0.029781 13.317-0.58469 19.594-1.7188 6.2764-1.1341 12.261-2.7969 17.875-4.8125 7.4843-2.6864 14.295-5.9618 20.281-9.3438 5.9866-3.3819 11.149-6.8568 15.375-9.9062 3.2155-2.3199 5.8735-4.3981 7.9688-6.0312z"/>
                <path id="path4105" style="fill:#88aa00" inkscape:connector-curvature="0" d="m1461.8-30.875c-6.884-0.04957-13.12 0.36807-18.312 0.90625-3.9583 0.41024-7.3 0.87767-9.9376 1.25 2.971-0.03707 6.8565 0.06507 11.438 0.4375 5.4366 0.44194 11.848 1.2924 18.781 2.8438 6.9335 1.5513 14.398 3.823 21.875 7.0625 5.6118 2.4318 11.215 5.4185 16.625 9.0312 5.4099 3.6127 10.602 7.834 15.438 12.688 3.2777 3.29 6.2906 6.7404 9 10.312 1.8379-7.0578 3.2708-14.431 4.4375-21.938-3.5617-2.7197-7.3558-5.2923-11.375-7.625-5.8193-3.3773-11.807-6.1095-17.812-8.25-6.0054-2.1405-12.032-3.6714-17.906-4.7188-7.8314-1.3971-15.366-1.9505-22.25-2z"/>
                <path id="path4107" style="fill:#88aa00" inkscape:connector-curvature="0" d="m1426.9-28.113c-0.01 0.0047-0.012 0.0066-0.019 0.0097 0 0.01303 0 0.02792-0.01 0.03878 0 0.0037 0.01 0.0054 0.01 0.0097 0.01 0.0019 0.013 0.0051 0.019 0.0097 0-0.0031 0.01 0 0.01 0 0-0.0031 0.01 0.0031 0.01 0 0-0.0062 0.014-0.005 0.019-0.0097-0.0002-0.0037 0-0.006 0-0.0097v-0.01939c-0.01-0.004-0.014-0.01225-0.019-0.01939 0 0.000621-0.01-0.0094-0.01-0.0097 0-0.000155-0.01 0-0.01 0z"/>
                <path id="path4109" style="fill:#ff0066" inkscape:connector-curvature="0" d="m1433.4-27c2.8841 0.72934 6.6227 1.8292 10.969 3.375 5.1365 1.827 11.113 4.2784 17.406 7.5625 6.2938 3.2841 12.901 7.414 19.281 12.469 4.7879 3.7942 9.4329 8.1172 13.719 13 4.2858 4.8828 8.2168 10.317 11.625 16.25 3.4658 6.0338 6.193 12.277 8.2813 18.531 4.0007-6.8744 7.2674-14.793 9.9062-23.344-3.299-4.592-7.0038-9.05-11.188-13.25-4.7425-4.7609-9.8185-8.9484-15.062-12.562-5.2441-3.6141-10.661-6.663-16.062-9.1875-7.2012-3.3663-14.364-5.8355-21-7.6562-6.6365-1.8207-12.751-2.9951-17.906-3.8125-3.9456-0.62557-7.3195-1.0549-9.9687-1.375z"/>
                <path id="path4111" style="fill:#ffbf00" inkscape:connector-curvature="0" d="m1433-25.344c2.5905 1.4457 5.9103 3.463 9.6874 6.0625 4.4863 3.0875 9.6187 7.0195 14.844 11.812 5.2251 4.793 10.527 10.443 15.375 16.969 3.6378 4.898 7.0053 10.305 9.875 16.125 2.8697 5.8202 5.2513 12.047 7 18.656 1.981 7.4868 3.0037 14.991 3.2812 22.281 2.7611-1.8122 5.4316-3.7337 7.9376-5.75 3.5896-2.8883 6.8195-6.3639 9.7187-10.344-2.2858-7.331-5.4084-14.688-9.5-21.812-3.3425-5.82-7.1559-11.19-11.281-16.031-4.1251-4.8414-8.5639-9.1704-13.125-13-6.0803-5.1061-12.344-9.3135-18.281-12.781-5.9368-3.4677-11.514-6.1953-16.281-8.3125-3.6278-1.6111-6.7808-2.886-9.25-3.875z"/>
                <path id="path4113" style="fill:#00ccff" inkscape:connector-curvature="0" d="m1432-23.875c2.1295 2.0654 4.7999 4.8493 7.7813 8.3438 3.5302 4.1377 7.4809 9.2434 11.281 15.219 3.8003 5.9753 7.4522 12.823 10.437 20.375 2.24 5.6679 4.0858 11.733 5.3438 18.094 1.258 6.3609 1.9361 13.01 1.9062 19.844-0.033 7.5007-0.934 14.772-2.4687 21.688 7.4751-2.6942 14.579-5.9196 21.125-9.6875-0.2648-7.8616-1.3759-16.008-3.5313-24.156-1.7147-6.4825-3.9934-12.636-6.7187-18.375-2.7254-5.7388-5.903-11.064-9.3125-15.938-4.5449-6.498-9.48-12.184-14.312-17.062-4.8325-4.8785-9.5396-8.9459-13.594-12.219-3.0964-2.4996-5.8062-4.5312-7.9376-6.125z"/>
                <path id="path4115" style="fill:#00ccff" inkscape:connector-curvature="0" d="m1422.7-23c-2.0752 2.1179-4.8977 4.7862-8.4063 7.75-4.1583 3.5127-9.2761 7.4373-15.281 11.219-6.0052 3.7814-12.91 7.4359-20.5 10.406-5.6963 2.2287-11.764 4.0607-18.156 5.3125-6.3927 1.2517-13.1 1.9048-19.969 1.875-9.172-0.0398-17.999-1.3412-26.25-3.5312-4.0702-1.0798-7.9937-2.3865-11.75-3.8438 0.4583 8.5926 1.8792 16.924 4.3438 24.688 6.3572 0.92358 13.113 1.4239 20.125 1.2812 8.355-0.17115 17.05-1.2528 25.75-3.5312 6.5149-1.7062 12.701-3.9757 18.469-6.6875 5.7675-2.7118 11.133-5.8575 16.031-9.25 6.5305-4.5223 12.253-9.4728 17.156-14.281 4.9029-4.8084 8.9921-9.4661 12.281-13.5 2.5095-3.0777 4.5552-5.7864 6.1563-7.9062z"/>
                <path id="path4117" style="fill-opacity:.94611;fill:#ff0066" inkscape:connector-curvature="0" d="m1430.8-22.688c1.5164 2.5403 3.3805 5.9352 5.3438 10.062 2.3337 4.9058 4.7896 10.843 6.9062 17.594 2.1166 6.7504 3.8932 14.312 4.8126 22.375 0.6892 6.0516 0.8768 12.376 0.4374 18.844-0.4393 6.4681-1.5058 13.063-3.3124 19.656-2.098 7.657-5.0563 14.855-8.5938 21.438 8.0628-1.2569 15.968-3.0761 23.562-5.4375 1.7338-7.5476 2.7755-15.561 2.8125-23.844 0.03-6.7032-0.579-13.224-1.7188-19.469-1.1396-6.2452-2.818-12.227-4.8437-17.812-2.6998-7.447-6.0074-14.231-9.4063-20.188-3.3988-5.9568-6.8729-11.076-9.9374-15.281-2.3296-3.1965-4.4219-5.8535-6.0626-7.9375z"/>
                <path id="path4119" style="fill:#ffbf00" inkscape:connector-curvature="0" d="m1424.2-22.094c-1.4537 2.5805-3.4747 5.8885-6.0937 9.6562-3.1031 4.4638-7.058 9.5509-11.875 14.75-4.8171 5.1991-10.504 10.52-17.063 15.344-4.9223 3.6198-10.338 6.9571-16.187 9.8125-5.8494 2.8554-12.139 5.2287-18.781 6.9688-8.8698 2.3236-17.742 3.3344-26.281 3.3438-6.6922 0.0082-13.167-0.61621-19.281-1.6562 2.997 7.5925 7.0921 14.537 12.406 20.438 1.0788 1.1977 2.1888 2.3393 3.3438 3.4688 6.9225-0.71005 14.218-2.028 21.594-4.1562 8.0259-2.3171 16.126-5.6211 23.937-10.062 5.8491-3.3258 11.228-7.114 16.094-11.219 4.8656-4.1047 9.245-8.5241 13.094-13.062 5.1315-6.0499 9.3586-12.28 12.844-18.188 3.4851-5.9073 6.216-11.475 8.3437-16.219 1.624-3.6201 2.9111-6.7585 3.9063-9.2188z"/>
                <path id="path4121" style="fill:#ffbf00" inkscape:connector-curvature="0" d="m1429.2-21.938c0.8073 2.8498 1.7039 6.6078 2.5312 11.125 0.9782 5.3397 1.8365 11.747 2.125 18.812 0.2887 7.0654 0.022 14.819-1.1874 22.844-0.9084 6.0229-2.3619 12.178-4.4688 18.312-2.1068 6.1346-4.8836 12.253-8.3438 18.156-4.6206 7.8838-10.156 14.86-16.187 20.875-0.3521 0.35122-0.7073 0.68656-1.0626 1.0312 8.8734 0.36204 17.825 0.01341 26.688-1 4.0227-7.279 7.4168-15.311 9.7812-23.938 1.7724-6.4671 2.8827-12.924 3.4062-19.25 0.5236-6.3259 0.4726-12.52-0.031-18.438-0.6708-7.8885-2.1101-15.277-3.8438-21.906-1.7336-6.6291-3.7586-12.492-5.625-17.344-1.4302-3.7178-2.7345-6.8369-3.7812-9.2812z"/>
                <path id="path4123" style="fill-opacity:.94611;fill:#ff0066" inkscape:connector-curvature="0" d="m1425.8-21.594c-0.733 2.8698-1.8215 6.5819-3.375 10.906-1.8361 5.1109-4.3246 11.05-7.625 17.312-3.3006 6.2625-7.4201 12.839-12.5 19.188-3.8133 4.7641-8.1865 9.3918-13.094 13.656-4.9072 4.2645-10.349 8.1712-16.312 11.562-7.9631 4.5287-16.285 7.823-24.531 10.031-6.5046 1.7428-12.975 2.7753-19.187 3.3438 8.2053 6.8109 17.889 12.176 28.5 16.156 4.2756-1.9135 8.5926-4.1287 12.844-6.6875 7.1497-4.305 14.142-9.6047 20.531-15.906 4.7846-4.7188 8.9927-9.7509 12.625-14.969 3.6322-5.2179 6.6816-10.594 9.2187-15.969 3.3832-7.1654 5.8577-14.303 7.6875-20.906 1.8298-6.6035 3.0222-12.683 3.8438-17.812 0.6286-3.9261 1.0532-7.2702 1.375-9.9062z"/>
                <path id="path4125" style="fill:#88aa00" inkscape:connector-curvature="0" d="m1427.6-21.5c0.037 2.9562-0.063 6.8168-0.4375 11.375-0.4441 5.4096-1.2848 11.788-2.8438 18.688-1.559 6.8991-3.838 14.31-7.0937 21.75-2.444 5.5838-5.4629 11.18-9.0937 16.562-3.6308 5.3829-7.8723 10.564-12.75 15.375-6.5139 6.4251-13.703 11.743-21.094 16-3.0814 1.7753-6.1933 3.3574-9.3125 4.7812 9.5702 2.9324 19.744 4.8153 30.156 5.7188 1.3157-1.2414 2.6258-2.5165 3.9062-3.8438 5.7863-5.9996 11.155-12.893 15.688-20.625 3.3942-5.7903 6.1613-11.743 8.3125-17.719 2.1511-5.9755 3.6974-11.967 4.75-17.812 1.404-7.7925 1.9502-15.307 2-22.156 0.05-6.8497-0.3966-13.021-0.9375-18.188-0.4117-3.9329-0.876-7.2835-1.25-9.9062z"/>
              </g>
              <g id="g4724" transform="translate(-17.571 -262.81)">
                <g id="g4702" transform="translate(0 7.6397)">
                  <path id="path4291" style="filter:url(#filter4716);fill:#6600ff" inkscape:connector-curvature="0" d="m1441.9 176.2c-25.239 0-45.684 20.519-45.684 45.837s20.444 45.837 45.684 45.837c25.239 0 45.71-20.519 45.71-45.837s-20.47-45.837-45.71-45.837z"/>
                  <path id="path4698" style="opacity:.74038;filter:url(#filter12762);stroke:url(#linearGradient5466);stroke-width:2.5442;fill:#000000" inkscape:connector-curvature="0" d="m1441.9 206.14c-25.239 0-45.699 19.94-45.699 44.537s20.46 44.537 45.699 44.537c25.24 0 45.7-19.94 45.7-44.537s-20.46-44.537-45.7-44.537z"/>
                  <path id="path4193" d="m1441.9 196.72c-25.239 0-45.7 20.524-45.7 45.842s20.46 45.842 45.7 45.842c25.239 0 45.7-20.524 45.7-45.842s-20.46-45.842-45.7-45.842z" style="fill:url(#radialGradient5468)" inkscape:connector-curvature="0"/>
                  <path id="path4295" style="opacity:.54327;filter:url(#filter4720);fill:#ffffff" inkscape:connector-curvature="0" d="m1441.9 210.24c-16.672 0-30.17 12.214-30.17 27.283 0 2.0615 0.247 4.0732 0.7263 6.0038 3.0246-12.183 15.053-21.28 29.444-21.28 14.392 0 26.446 9.0965 29.47 21.28 0.4794-1.9307 0.7264-3.9423 0.7264-6.0038 0-15.07-13.524-27.283-30.196-27.283z"/>
                </g>
              </g>
            </g>
            <g id="g4846" transform="matrix(-1 0 0 1 3142.3 -330.8)">
              <path id="path4848" style="fill:#000000" inkscape:connector-curvature="0" d="m1467.3-117.27c-47.372-0.54722-107.24 4.7504-133.3 31.835-33.128 34.427-44.836 106.56-12.929 141.98 39.903 44.303 133.32 41.775 179.93 4.2749 46.163-37.143 32.366-173.73 32.366-173.73s-29.225-3.9403-66.07-4.3659z"/>
              <g id="g4850">
                <path id="path4852" style="fill:#ff0066" inkscape:connector-curvature="0" d="m1407.1-114.06c-5.4108 0.72926-10.729 1.6189-15.938 2.6562 0.1251 5.7383 0.7357 11.332 1.7188 16.719 1.1397 6.2452 2.7868 12.227 4.8124 17.812 2.6997 7.447 6.0075 14.231 9.4063 20.188 3.3989 5.9568 6.9042 11.076 9.9687 15.281 2.3316 3.1993 4.4212 5.8527 6.0626 7.9375-1.5172-2.5409-3.4102-5.932-5.375-10.062-2.3337-4.9058-4.7898-10.843-6.9063-17.594-2.1166-6.7504-3.862-14.312-4.7813-22.375-0.6893-6.0516-0.9081-12.376-0.4687-18.844 0.2628-3.8686 0.7615-7.7857 1.5-11.719z"/>
                <path id="path4854" style="fill:#ffbf00" inkscape:connector-curvature="0" d="m1430.1-116.34c-5.5959 0.37194-11.194 0.89864-16.75 1.5312-0.9874 4.5778-1.6599 9.1369-2.0313 13.625-0.5236 6.3259-0.4725 12.52 0.031 18.438 0.6706 7.8885 2.1102 15.277 3.8437 21.906 1.7336 6.6291 3.7898 12.492 5.6563 17.344 1.4327 3.7243 2.7337 6.835 3.7812 9.2812-0.8086-2.8523-1.7331-6.597-2.5625-11.125-0.9781-5.3397-1.8052-11.747-2.0937-18.812-0.2887-7.0655-0.054-14.819 1.1562-22.844 0.9084-6.0229 2.3932-12.178 4.5-18.312 1.2724-3.7049 2.7711-7.3871 4.5312-11.031-0.021 0.001-0.042-0.001-0.062 0z"/>
                <path id="path4856" style="fill:#00ccff" inkscape:connector-curvature="0" d="m1385.2-110.16c-5.5883 1.2787-10.983 2.7814-16.125 4.5 0.2762 1.218 0.5838 2.4371 0.9063 3.6562 1.7148 6.4825 4.0247 12.636 6.75 18.375 2.7254 5.7389 5.8718 11.064 9.2813 15.938 4.5449 6.498 9.5112 12.184 14.344 17.062 4.8324 4.8785 9.5396 8.9459 13.594 12.219 3.0933 2.4971 5.7758 4.5319 7.9063 6.125-2.1285-2.0649-4.8026-4.8526-7.7813-8.3438-3.5301-4.1377-7.4808-9.2434-11.281-15.219-3.8003-5.9753-7.4523-12.823-10.438-20.375-2.2399-5.6679-4.0858-11.733-5.3437-18.094-1.0115-5.1141-1.6166-10.408-1.8126-15.844z"/>
                <path id="path4858" style="fill:#88aa00" inkscape:connector-curvature="0" d="m1457.4-117.31c-6.6416 0.0433-13.441 0.25438-20.312 0.59375-2.4623 4.6151-4.555 9.2916-6.25 14-2.1511 5.9755-3.6975 11.967-4.75 17.812-1.4041 7.7925-1.9502 15.307-2 22.156-0.05 6.8497 0.3967 13.052 0.9375 18.219 0.4157 3.9706 0.8743 7.3036 1.25 9.9375-0.039-2.9643 0.029-6.8462 0.4063-11.438 0.4441-5.4096 1.2846-11.788 2.8437-18.688 1.559-6.899 3.8382-14.31 7.0937-21.75 2.444-5.5838 5.463-11.148 9.0938-16.531 3.3609-4.9827 7.2581-9.8076 11.688-14.312z"/>
                <path id="path4860" style="fill:#ffbf00" inkscape:connector-curvature="0" d="m1363.3-103.62c-5.8386 2.2454-11.261 4.8416-16.156 7.8125 1.5956 3.7091 3.3908 7.3818 5.4687 11 3.3426 5.82 7.1561 11.19 11.281 16.031 4.1253 4.8414 8.564 9.1704 13.125 13 6.0802 5.1061 12.344 9.3447 18.281 12.812 5.9367 3.4678 11.545 6.164 16.312 8.2812 3.6601 1.6255 6.8021 2.9134 9.2813 3.9062-2.5992-1.4481-5.9439-3.4742-9.75-6.0938-4.4862-3.0875-9.5874-7.0195-14.812-11.812-5.2251-4.793-10.558-10.443-15.406-16.969-3.6378-4.8979-6.9741-10.274-9.8438-16.094-2.8697-5.8202-5.2513-12.11-7-18.719-0.2808-1.0612-0.5376-2.0952-0.7812-3.1562z"/>
                <path id="path4862" style="fill:#ff0066" inkscape:connector-curvature="0" d="m1466.1-117.28c-1.124 1.0168-2.221 2.0485-3.3126 3.125-4.7846 4.7188-8.9928 9.7821-12.625 15s-6.7128 10.594-9.25 15.969c-3.3831 7.1654-5.8577 14.303-7.6874 20.906-1.8298 6.6035-2.991 12.683-3.8126 17.812-0.6295 3.9312-1.053 7.2687-1.375 9.9062 0.733-2.8701 1.8212-6.5809 3.375-10.906 1.8361-5.1109 4.3246-11.05 7.625-17.312 3.3006-6.2624 7.42-12.839 12.5-19.188 3.8132-4.7641 8.1552-9.3918 13.063-13.656 4.9072-4.2645 10.38-8.1712 16.344-11.562 6.5588-3.73 13.353-6.5823 20.156-8.7188-9.8716-0.65812-21.403-1.2313-33.844-1.375-0.3791-0.004-0.7756 0.004-1.1562 0z"/>
                <path id="path4864" style="fill:#ff0066" inkscape:connector-curvature="0" d="m1342.1-92.5c-2.9994 2.1693-5.7442 4.5234-8.1875 7.0625-2.0451 2.1253-3.9984 4.3861-5.875 6.7812 3.5774 5.1749 7.6915 10.205 12.375 14.906 4.7425 4.7609 9.8185 8.9484 15.062 12.562 5.244 3.6141 10.661 6.663 16.062 9.1875 7.2012 3.3663 14.332 5.8355 20.969 7.6562 6.6367 1.8207 12.751 2.9951 17.906 3.8125 3.9037 0.6189 7.2697 1.025 9.9063 1.3438-2.8739-0.72924-6.5985-1.8115-10.906-3.3438-5.1364-1.827-11.081-4.2784-17.375-7.5625-6.2938-3.2841-12.901-7.414-19.281-12.469-4.7879-3.7942-9.4328-8.1172-13.719-13-4.2857-4.8828-8.2168-10.317-11.625-16.25-2.0141-3.5064-3.7751-7.0806-5.3125-10.688z"/>
                <path id="path4866" style="fill:#ffbf00" inkscape:connector-curvature="0" d="m1518.3-114.53c-3.4297 0.66236-6.8795 1.4914-10.375 2.5-8.0259 2.317-16.158 5.6211-23.969 10.062-5.8491 3.3258-11.228 7.114-16.094 11.219-4.8658 4.1047-9.2138 8.5241-13.063 13.062-5.1316 6.0499-9.3899 12.28-12.875 18.188-3.4851 5.9072-6.2159 11.475-8.3437 16.219-1.6239 3.6201-2.8798 6.7585-3.875 9.2188 1.4536-2.5803 3.4441-5.8894 6.0625-9.6562 3.103-4.4639 7.058-9.5822 11.875-14.781 4.817-5.1991 10.504-10.489 17.062-15.312 4.9224-3.6198 10.338-6.9571 16.188-9.8125 5.8493-2.8554 12.139-5.2287 18.781-6.9688 8.8698-2.3236 17.773-3.3344 26.313-3.3438 2.9358-0.0036 5.8146 0.12478 8.6562 0.34375-0.5641-11.752-1.3125-19.312-1.3125-19.312s-5.7561-0.7479-15.031-1.625z"/>
                <path id="path4868" style="fill:#88aa00" inkscape:connector-curvature="0" d="m1324.4-73.656c-3.8984 5.6696-7.3285 11.896-10.281 18.5 5.8555 5.4913 12.512 10.579 19.969 14.906 5.8193 3.3773 11.807 6.1095 17.812 8.25 6.0055 2.1404 12.032 3.6714 17.906 4.7188 7.8314 1.3971 15.397 1.9504 22.281 2 6.884 0.04954 13.089-0.36807 18.281-0.90625 3.9634-0.4108 7.3297-0.9087 9.9688-1.2812-2.9721 0.03738-6.8516-0.03346-11.438-0.40625-5.4366-0.44198-11.879-1.2924-18.812-2.8438-6.9336-1.5513-14.366-3.8231-21.844-7.0625-5.6117-2.4319-11.215-5.4185-16.625-9.0312-5.4099-3.6127-10.633-7.834-15.469-12.688-4.4415-4.4582-8.3474-9.2186-11.75-14.156z"/>
                <path id="path4870" style="fill:#00ccff" inkscape:connector-curvature="0" d="m1528.7-88.344c-0.5827 0.0028-1.1639 0.01936-1.75 0.03125-8.3551 0.17118-17.05 1.2528-25.75 3.5312-6.5149 1.7062-12.701 3.9757-18.469 6.6875-5.7676 2.7118-11.102 5.8574-16 9.25-6.5305 4.5223-12.285 9.4728-17.188 14.281-4.903 4.8084-8.9921 9.4973-12.281 13.531-2.5094 3.0777-4.524 5.7551-6.125 7.875 2.0752-2.1179 4.8665-4.7862 8.375-7.75 4.1585-3.5127 9.3074-7.4373 15.313-11.219 6.0051-3.7814 12.879-7.4358 20.469-10.406 5.6963-2.2287 11.795-4.0295 18.188-5.2812 6.3927-1.2517 13.069-1.9361 19.938-1.9062 7.5427 0.03274 14.861 0.93759 21.812 2.4688 0.01-7.6789-0.1414-14.74-0.375-20.938-2.0289-0.09573-4.0771-0.16671-6.1562-0.15625z"/>
                <path id="path4872" style="fill:#ffbf00" inkscape:connector-curvature="0" d="m1311.8-49.562c-2.6746 6.8096-4.7961 13.93-6.375 21.188 1.5131 0.92215 3.0401 1.8507 4.625 2.7188 7.3217 4.0085 15.414 7.3636 24.094 9.7188 6.4993 1.7636 13.017 2.8853 19.375 3.4062 6.3575 0.52093 12.553 0.4387 18.5-0.0625 7.928-0.66738 15.369-2.0875 22.031-3.8125 6.6623-1.725 12.562-3.7367 17.438-5.5938 3.7099-1.4131 6.8011-2.7432 9.25-3.7812-2.8594 0.8005-6.6063 1.7118-11.125 2.5312-5.3664 0.9732-11.774 1.8066-18.875 2.0938-7.1008 0.28711-14.904 0.04714-22.969-1.1562-6.0531-0.90384-12.241-2.3723-18.406-4.4688-6.1653-2.0964-12.317-4.8384-18.25-8.2812-7.2109-4.1844-13.654-9.1196-19.312-14.5z"/>
                <path id="path4874" style="fill:#ff0066" inkscape:connector-curvature="0" d="m1513.4-63.719c-6.7367-0.02972-13.286 0.58468-19.562 1.7188-6.2764 1.1341-12.292 2.7969-17.906 4.8125-7.4843 2.6863-14.295 5.9618-20.281 9.3438-5.9866 3.3819-11.149 6.8568-15.375 9.9062-3.2307 2.331-5.9003 4.3945-8 6.0312 2.5563-1.5122 5.9604-3.3511 10.125-5.3125 4.9304-2.3221 10.903-4.769 17.688-6.875 6.7841-2.106 14.396-3.8666 22.5-4.7812 6.0818-0.68582 12.437-0.87473 18.938-0.4375 6.5005 0.43722 13.124 1.4836 19.75 3.2812 4.5743 1.2409 8.9769 2.8075 13.188 4.5938 0.3868-6.8724 0.6374-13.579 0.7188-19.969-6.9442-1.4373-14.247-2.2792-21.781-2.3125z"/>
                <path id="path4876" style="fill:#ffbf00" inkscape:connector-curvature="0" d="m1491-43.969c-3.0923 0.01216-6.1517 0.15565-9.125 0.40625-7.928 0.66738-15.369 2.0875-22.031 3.8125-6.6623 1.725-12.531 3.7367-17.406 5.5938-3.7098 1.413-6.8323 2.712-9.2813 3.75 2.8595-0.80053 6.6376-1.6805 11.156-2.5 5.3664-0.9732 11.743-1.8066 18.844-2.0938 7.1007-0.28714 14.904-0.04714 22.969 1.1562 6.0531 0.90381 12.272 2.3723 18.438 4.4688 6.1652 2.0964 12.286 4.8384 18.219 8.2812 3.2635 1.8937 6.3628 3.9486 9.3126 6.125 0.8857-6.7425 1.551-13.53 2.0312-20.219-4.5716-1.962-9.3731-3.674-14.375-5.0312-6.4994-1.7636-12.986-2.854-19.344-3.375-3.1787-0.26047-6.3139-0.38716-9.4062-0.375z"/>
                <path id="path4878" style="fill-opacity:.94611;fill:#ff0066" inkscape:connector-curvature="0" d="m1421.5-24.25c-2.5537 1.5095-5.9425 3.3574-10.094 5.3125-4.9303 2.322-10.903 4.8002-17.687 6.9062-6.7843 2.106-14.365 3.8353-22.469 4.75-6.0819 0.68581-12.468 0.90598-18.969 0.46875-6.5005-0.43723-13.123-1.5149-19.75-3.3125-8.849-2.4005-17.069-5.9472-24.469-10.188-1.2986-0.74389-2.5644-1.4967-3.8125-2.2812-1.3402 7.7166-2.045 15.525-2 23.188 3.9511 1.4344 8.0801 2.6981 12.375 3.75 8.1149 1.9863 16.785 3.179 25.781 3.2188 6.7367 0.029781 13.317-0.58469 19.594-1.7188 6.2764-1.1341 12.261-2.7969 17.875-4.8125 7.4843-2.6864 14.295-5.9618 20.281-9.3438 5.9866-3.3819 11.149-6.8568 15.375-9.9062 3.2155-2.3199 5.8735-4.3981 7.9688-6.0312z"/>
                <path id="path4880" style="fill:#88aa00" inkscape:connector-curvature="0" d="m1461.8-30.875c-6.884-0.04957-13.12 0.36807-18.312 0.90625-3.9583 0.41024-7.3 0.87767-9.9376 1.25 2.971-0.03707 6.8565 0.06507 11.438 0.4375 5.4366 0.44194 11.848 1.2924 18.781 2.8438 6.9335 1.5513 14.398 3.823 21.875 7.0625 5.6118 2.4318 11.215 5.4185 16.625 9.0312 5.4099 3.6127 10.602 7.834 15.438 12.688 3.2777 3.29 6.2906 6.7404 9 10.312 1.8379-7.0578 3.2708-14.431 4.4375-21.938-3.5617-2.7197-7.3558-5.2923-11.375-7.625-5.8193-3.3773-11.807-6.1095-17.812-8.25-6.0054-2.1405-12.032-3.6714-17.906-4.7188-7.8314-1.3971-15.366-1.9505-22.25-2z"/>
                <path id="path4882" style="fill:#88aa00" inkscape:connector-curvature="0" d="m1426.9-28.113c-0.01 0.0047-0.012 0.0066-0.019 0.0097 0 0.01303 0 0.02792-0.01 0.03878 0 0.0037 0.01 0.0054 0.01 0.0097 0.01 0.0019 0.013 0.0051 0.019 0.0097 0-0.0031 0.01 0 0.01 0 0-0.0031 0.01 0.0031 0.01 0 0-0.0062 0.014-0.005 0.019-0.0097-0.0002-0.0037 0-0.006 0-0.0097v-0.01939c-0.01-0.004-0.014-0.01225-0.019-0.01939 0 0.000621-0.01-0.0094-0.01-0.0097 0-0.000155-0.01 0-0.01 0z"/>
                <path id="path4884" style="fill:#ff0066" inkscape:connector-curvature="0" d="m1433.4-27c2.8841 0.72934 6.6227 1.8292 10.969 3.375 5.1365 1.827 11.113 4.2784 17.406 7.5625 6.2938 3.2841 12.901 7.414 19.281 12.469 4.7879 3.7942 9.4329 8.1172 13.719 13 4.2858 4.8828 8.2168 10.317 11.625 16.25 3.4658 6.0338 6.193 12.277 8.2813 18.531 4.0007-6.8744 7.2674-14.793 9.9062-23.344-3.299-4.592-7.0038-9.05-11.188-13.25-4.7425-4.7609-9.8185-8.9484-15.062-12.562-5.2441-3.6141-10.661-6.663-16.062-9.1875-7.2012-3.3663-14.364-5.8355-21-7.6562-6.6365-1.8207-12.751-2.9951-17.906-3.8125-3.9456-0.62557-7.3195-1.0549-9.9687-1.375z"/>
                <path id="path4886" style="fill:#ffbf00" inkscape:connector-curvature="0" d="m1433-25.344c2.5905 1.4457 5.9103 3.463 9.6874 6.0625 4.4863 3.0875 9.6187 7.0195 14.844 11.812 5.2251 4.793 10.527 10.443 15.375 16.969 3.6378 4.898 7.0053 10.305 9.875 16.125 2.8697 5.8202 5.2513 12.047 7 18.656 1.981 7.4868 3.0037 14.991 3.2812 22.281 2.7611-1.8122 5.4316-3.7337 7.9376-5.75 3.5896-2.8883 6.8195-6.3639 9.7187-10.344-2.2858-7.331-5.4084-14.688-9.5-21.812-3.3425-5.82-7.1559-11.19-11.281-16.031-4.1251-4.8414-8.5639-9.1704-13.125-13-6.0803-5.1061-12.344-9.3135-18.281-12.781-5.9368-3.4677-11.514-6.1953-16.281-8.3125-3.6278-1.6111-6.7808-2.886-9.25-3.875z"/>
                <path id="path4888" style="fill:#00ccff" inkscape:connector-curvature="0" d="m1432-23.875c2.1295 2.0654 4.7999 4.8493 7.7813 8.3438 3.5302 4.1377 7.4809 9.2434 11.281 15.219 3.8003 5.9753 7.4522 12.823 10.437 20.375 2.24 5.6679 4.0858 11.733 5.3438 18.094 1.258 6.3609 1.9361 13.01 1.9062 19.844-0.033 7.5007-0.934 14.772-2.4687 21.688 7.4751-2.6942 14.579-5.9196 21.125-9.6875-0.2648-7.8616-1.3759-16.008-3.5313-24.156-1.7147-6.4825-3.9934-12.636-6.7187-18.375-2.7254-5.7388-5.903-11.064-9.3125-15.938-4.5449-6.498-9.48-12.184-14.312-17.062-4.8325-4.8785-9.5396-8.9459-13.594-12.219-3.0964-2.4996-5.8062-4.5312-7.9376-6.125z"/>
                <path id="path4890" style="fill:#00ccff" inkscape:connector-curvature="0" d="m1422.7-23c-2.0752 2.1179-4.8977 4.7862-8.4063 7.75-4.1583 3.5127-9.2761 7.4373-15.281 11.219-6.0052 3.7814-12.91 7.4359-20.5 10.406-5.6963 2.2287-11.764 4.0607-18.156 5.3125-6.3927 1.2517-13.1 1.9048-19.969 1.875-9.172-0.0398-17.999-1.3412-26.25-3.5312-4.0702-1.0798-7.9937-2.3865-11.75-3.8438 0.4583 8.5926 1.8792 16.924 4.3438 24.688 6.3572 0.92358 13.113 1.4239 20.125 1.2812 8.355-0.17115 17.05-1.2528 25.75-3.5312 6.5149-1.7062 12.701-3.9757 18.469-6.6875 5.7675-2.7118 11.133-5.8575 16.031-9.25 6.5305-4.5223 12.253-9.4728 17.156-14.281 4.9029-4.8084 8.9921-9.4661 12.281-13.5 2.5095-3.0777 4.5552-5.7864 6.1563-7.9062z"/>
                <path id="path4892" style="fill-opacity:.94611;fill:#ff0066" inkscape:connector-curvature="0" d="m1430.8-22.688c1.5164 2.5403 3.3805 5.9352 5.3438 10.062 2.3337 4.9058 4.7896 10.843 6.9062 17.594 2.1166 6.7504 3.8932 14.312 4.8126 22.375 0.6892 6.0516 0.8768 12.376 0.4374 18.844-0.4393 6.4681-1.5058 13.063-3.3124 19.656-2.098 7.657-5.0563 14.855-8.5938 21.438 8.0628-1.2569 15.968-3.0761 23.562-5.4375 1.7338-7.5476 2.7755-15.561 2.8125-23.844 0.03-6.7032-0.579-13.224-1.7188-19.469-1.1396-6.2452-2.818-12.227-4.8437-17.812-2.6998-7.447-6.0074-14.231-9.4063-20.188-3.3988-5.9568-6.8729-11.076-9.9374-15.281-2.3296-3.1965-4.4219-5.8535-6.0626-7.9375z"/>
                <path id="path4894" style="fill:#ffbf00" inkscape:connector-curvature="0" d="m1424.2-22.094c-1.4537 2.5805-3.4747 5.8885-6.0937 9.6562-3.1031 4.4638-7.058 9.5509-11.875 14.75-4.8171 5.1991-10.504 10.52-17.063 15.344-4.9223 3.6198-10.338 6.9571-16.187 9.8125-5.8494 2.8554-12.139 5.2287-18.781 6.9688-8.8698 2.3236-17.742 3.3344-26.281 3.3438-6.6922 0.0082-13.167-0.61621-19.281-1.6562 2.997 7.5925 7.0921 14.537 12.406 20.438 1.0788 1.1977 2.1888 2.3393 3.3438 3.4688 6.9225-0.71005 14.218-2.028 21.594-4.1562 8.0259-2.3171 16.126-5.6211 23.937-10.062 5.8491-3.3258 11.228-7.114 16.094-11.219 4.8656-4.1047 9.245-8.5241 13.094-13.062 5.1315-6.0499 9.3586-12.28 12.844-18.188 3.4851-5.9073 6.216-11.475 8.3437-16.219 1.624-3.6201 2.9111-6.7585 3.9063-9.2188z"/>
                <path id="path4896" style="fill:#ffbf00" inkscape:connector-curvature="0" d="m1429.2-21.938c0.8073 2.8498 1.7039 6.6078 2.5312 11.125 0.9782 5.3397 1.8365 11.747 2.125 18.812 0.2887 7.0654 0.022 14.819-1.1874 22.844-0.9084 6.0229-2.3619 12.178-4.4688 18.312-2.1068 6.1346-4.8836 12.253-8.3438 18.156-4.6206 7.8838-10.156 14.86-16.187 20.875-0.3521 0.35122-0.7073 0.68656-1.0626 1.0312 8.8734 0.36204 17.825 0.01341 26.688-1 4.0227-7.279 7.4168-15.311 9.7812-23.938 1.7724-6.4671 2.8827-12.924 3.4062-19.25 0.5236-6.3259 0.4726-12.52-0.031-18.438-0.6708-7.8885-2.1101-15.277-3.8438-21.906-1.7336-6.6291-3.7586-12.492-5.625-17.344-1.4302-3.7178-2.7345-6.8369-3.7812-9.2812z"/>
                <path id="path4898" style="fill-opacity:.94611;fill:#ff0066" inkscape:connector-curvature="0" d="m1425.8-21.594c-0.733 2.8698-1.8215 6.5819-3.375 10.906-1.8361 5.1109-4.3246 11.05-7.625 17.312-3.3006 6.2625-7.4201 12.839-12.5 19.188-3.8133 4.7641-8.1865 9.3918-13.094 13.656-4.9072 4.2645-10.349 8.1712-16.312 11.562-7.9631 4.5287-16.285 7.823-24.531 10.031-6.5046 1.7428-12.975 2.7753-19.187 3.3438 8.2053 6.8109 17.889 12.176 28.5 16.156 4.2756-1.9135 8.5926-4.1287 12.844-6.6875 7.1497-4.305 14.142-9.6047 20.531-15.906 4.7846-4.7188 8.9927-9.7509 12.625-14.969 3.6322-5.2179 6.6816-10.594 9.2187-15.969 3.3832-7.1654 5.8577-14.303 7.6875-20.906 1.8298-6.6035 3.0222-12.683 3.8438-17.812 0.6286-3.9261 1.0532-7.2702 1.375-9.9062z"/>
                <path id="path4900" style="fill:#88aa00" inkscape:connector-curvature="0" d="m1427.6-21.5c0.037 2.9562-0.063 6.8168-0.4375 11.375-0.4441 5.4096-1.2848 11.788-2.8438 18.688-1.559 6.8991-3.838 14.31-7.0937 21.75-2.444 5.5838-5.4629 11.18-9.0937 16.562-3.6308 5.3829-7.8723 10.564-12.75 15.375-6.5139 6.4251-13.703 11.743-21.094 16-3.0814 1.7753-6.1933 3.3574-9.3125 4.7812 9.5702 2.9324 19.744 4.8153 30.156 5.7188 1.3157-1.2414 2.6258-2.5165 3.9062-3.8438 5.7863-5.9996 11.155-12.893 15.688-20.625 3.3942-5.7903 6.1613-11.743 8.3125-17.719 2.1511-5.9755 3.6974-11.967 4.75-17.812 1.404-7.7925 1.9502-15.307 2-22.156 0.05-6.8497-0.3966-13.021-0.9375-18.188-0.4117-3.9329-0.876-7.2835-1.25-9.9062z"/>
              </g>
              <g id="g4902" transform="translate(-17.571 -262.81)">
                <g id="g4904" transform="translate(0 7.6397)">
                  <path id="path4906" d="m1441.9 176.2c-25.239 0-45.684 20.519-45.684 45.837s20.444 45.837 45.684 45.837c25.239 0 45.71-20.519 45.71-45.837s-20.47-45.837-45.71-45.837z" style="filter:url(#filter4716);fill:#6600ff" inkscape:connector-curvature="0"/>
                  <path id="path4908" d="m1441.9 206.14c-25.239 0-45.699 19.94-45.699 44.537s20.46 44.537 45.699 44.537c25.24 0 45.7-19.94 45.7-44.537s-20.46-44.537-45.7-44.537z" style="opacity:.74038;filter:url(#filter12762);stroke:url(#linearGradient5466);stroke-width:2.5442;fill:#000000" inkscape:connector-curvature="0"/>
                  <path id="path4910" style="fill:url(#radialGradient5468)" inkscape:connector-curvature="0" d="m1441.9 196.72c-25.239 0-45.7 20.524-45.7 45.842s20.46 45.842 45.7 45.842c25.239 0 45.7-20.524 45.7-45.842s-20.46-45.842-45.7-45.842z"/>
                  <path id="path4912" d="m1441.9 210.24c-16.672 0-30.17 12.214-30.17 27.283 0 2.0615 0.247 4.0732 0.7263 6.0038 3.0246-12.183 15.053-21.28 29.444-21.28 14.392 0 26.446 9.0965 29.47 21.28 0.4794-1.9307 0.7264-3.9423 0.7264-6.0038 0-15.07-13.524-27.283-30.196-27.283z" style="opacity:.54327;filter:url(#filter4720);fill:#ffffff" inkscape:connector-curvature="0"/>
                </g>
              </g>
            </g>
          </g>
          <g id="g5041">
            <path id="path4994" d="m1449.1-435.57c-8.3912 0.11492-17.063 0.99565-25.875 2.7188-53.714 10.503-91.88 48.171-85.219 84.125 2.7064 14.606 12.415 26.699 26.562 35.188-7.1916-7.1503-12.081-15.726-13.875-25.406-6.6619-35.954 31.505-73.622 85.219-84.125 31.944-6.246 62.195-1.4826 82.875 10.969-14.503-14.475-38.552-23.133-66.094-23.469-1.1861-0.0145-2.3951-0.0165-3.5938 0zm56.844 89.344c3.997 3.9741 6.6906 8.7447 7.6875 14.125 3.7025 19.983-17.49 40.913-47.344 46.75-17.754 3.4714-34.6 0.82671-46.094-6.0938 8.0603 8.0451 21.474 12.876 36.781 13.062 5.2737 0.0639 10.746-0.43678 16.344-1.5312 29.853-5.8372 51.046-26.767 47.344-46.75-1.5043-8.1182-6.8557-14.845-14.719-19.562z" style="filter:url(#filter5454);fill:#ffffff" inkscape:connector-curvature="0"/>
            <path id="path5039" style="filter:url(#filter5450);fill:#ffffff" inkscape:connector-curvature="0" transform="matrix(-1 0 0 1 3168.6 0)" d="m1449.1-435.57c-8.3912 0.11492-17.063 0.99565-25.875 2.7188-53.714 10.503-91.88 48.171-85.219 84.125 2.7064 14.606 12.415 26.699 26.562 35.188-7.1916-7.1503-12.081-15.726-13.875-25.406-6.6619-35.954 31.505-73.622 85.219-84.125 31.944-6.246 62.195-1.4826 82.875 10.969-14.503-14.475-38.552-23.133-66.094-23.469-1.1861-0.0145-2.3951-0.0165-3.5938 0zm56.844 89.344c3.997 3.9741 6.6906 8.7447 7.6875 14.125 3.7025 19.983-17.49 40.913-47.344 46.75-17.754 3.4714-34.6 0.82671-46.094-6.0938 8.0603 8.0451 21.474 12.876 36.781 13.062 5.2737 0.0639 10.746-0.43678 16.344-1.5312 29.853-5.8372 51.046-26.767 47.344-46.75-1.5043-8.1182-6.8557-14.845-14.719-19.562z"/>
          </g>
        </g>
      </g>
    </g>
  </g>
  <metadata>
    <rdf:RDF>
      <cc:Work>
        <dc:format>image/svg+xml</dc:format>
        <dc:type rdf:resource="http://purl.org/dc/dcmitype/StillImage"/>
        <cc:license rdf:resource="http://creativecommons.org/licenses/publicdomain/"/>
        <dc:publisher>
          <cc:Agent rdf:about="http://openclipart.org/">
            <dc:title>Openclipart</dc:title>
          </cc:Agent>
        </dc:publisher>
        <dc:title>Skull</dc:title>
        <dc:date>2013-01-02T01:24:47</dc:date>
        <dc:description>Skull</dc:description>
        <dc:source>https://openclipart.org/detail/174012/skull-by-viscious-speed-174012</dc:source>
        <dc:creator>
          <cc:Agent>
            <dc:title>Viscious-Speed</dc:title>
          </cc:Agent>
        </dc:creator>
        <dc:subject>
          <rdf:Bag>
            <rdf:li>Psychedelic</rdf:li>
            <rdf:li>Skull</rdf:li>
          </rdf:Bag>
        </dc:subject>
      </cc:Work>
      <cc:License rdf:about="http://creativecommons.org/licenses/publicdomain/">
        <cc:permits rdf:resource="http://creativecommons.org/ns#Reproduction"/>
        <cc:permits rdf:resource="http://creativecommons.org/ns#Distribution"/>
        <cc:permits rdf:resource="http://creativecommons.org/ns#DerivativeWorks"/>
      </cc:License>
    </rdf:RDF>
  </metadata>
</svg>